G04 #@! TF.GenerationSoftware,KiCad,Pcbnew,(5.1.2)-1*
G04 #@! TF.CreationDate,2026-08-07T14:03:50+09:00*
G04 #@! TF.ProjectId,um,756d2e6b-6963-4616-945f-706362585858,v1.0*
G04 #@! TF.SameCoordinates,Original*
G04 #@! TF.FileFunction,Paste,Bot*
G04 #@! TF.FilePolarity,Positive*
%FSLAX46Y46*%
G04 Gerber Fmt 4.6, Leading zero omitted, Abs format (unit mm)*
G04 Created by KiCad (PCBNEW (5.1.2)-1) date 2026-08-07 14:03:50*
%MOMM*%
%LPD*%
G04 APERTURE LIST*
%ADD10R,1.000000X0.400000*%
%ADD11R,1.400000X0.300000*%
%ADD12C,0.100000*%
%ADD13C,0.590000*%
%ADD14C,0.875000*%
G04 APERTURE END LIST*
D10*
X127400000Y-99775000D03*
X127400000Y-99125000D03*
X127400000Y-98475000D03*
X127400000Y-97825000D03*
X127400000Y-97175000D03*
X127400000Y-96525000D03*
X127400000Y-95875000D03*
X127400000Y-95225000D03*
X121600000Y-95225000D03*
X121600000Y-95875000D03*
X121600000Y-96525000D03*
X121600000Y-97175000D03*
X121600000Y-97825000D03*
X121600000Y-98475000D03*
X121600000Y-99125000D03*
X121600000Y-99775000D03*
D11*
X122800000Y-103400000D03*
X122800000Y-103900000D03*
X122800000Y-104400000D03*
X122800000Y-104900000D03*
X122800000Y-105400000D03*
X127200000Y-105400000D03*
X127200000Y-104900000D03*
X127200000Y-104400000D03*
X127200000Y-103900000D03*
X127200000Y-103400000D03*
D12*
G36*
X130076958Y-96180710D02*
G01*
X130091276Y-96182834D01*
X130105317Y-96186351D01*
X130118946Y-96191228D01*
X130132031Y-96197417D01*
X130144447Y-96204858D01*
X130156073Y-96213481D01*
X130166798Y-96223202D01*
X130176519Y-96233927D01*
X130185142Y-96245553D01*
X130192583Y-96257969D01*
X130198772Y-96271054D01*
X130203649Y-96284683D01*
X130207166Y-96298724D01*
X130209290Y-96313042D01*
X130210000Y-96327500D01*
X130210000Y-96672500D01*
X130209290Y-96686958D01*
X130207166Y-96701276D01*
X130203649Y-96715317D01*
X130198772Y-96728946D01*
X130192583Y-96742031D01*
X130185142Y-96754447D01*
X130176519Y-96766073D01*
X130166798Y-96776798D01*
X130156073Y-96786519D01*
X130144447Y-96795142D01*
X130132031Y-96802583D01*
X130118946Y-96808772D01*
X130105317Y-96813649D01*
X130091276Y-96817166D01*
X130076958Y-96819290D01*
X130062500Y-96820000D01*
X129767500Y-96820000D01*
X129753042Y-96819290D01*
X129738724Y-96817166D01*
X129724683Y-96813649D01*
X129711054Y-96808772D01*
X129697969Y-96802583D01*
X129685553Y-96795142D01*
X129673927Y-96786519D01*
X129663202Y-96776798D01*
X129653481Y-96766073D01*
X129644858Y-96754447D01*
X129637417Y-96742031D01*
X129631228Y-96728946D01*
X129626351Y-96715317D01*
X129622834Y-96701276D01*
X129620710Y-96686958D01*
X129620000Y-96672500D01*
X129620000Y-96327500D01*
X129620710Y-96313042D01*
X129622834Y-96298724D01*
X129626351Y-96284683D01*
X129631228Y-96271054D01*
X129637417Y-96257969D01*
X129644858Y-96245553D01*
X129653481Y-96233927D01*
X129663202Y-96223202D01*
X129673927Y-96213481D01*
X129685553Y-96204858D01*
X129697969Y-96197417D01*
X129711054Y-96191228D01*
X129724683Y-96186351D01*
X129738724Y-96182834D01*
X129753042Y-96180710D01*
X129767500Y-96180000D01*
X130062500Y-96180000D01*
X130076958Y-96180710D01*
X130076958Y-96180710D01*
G37*
D13*
X129915000Y-96500000D03*
D12*
G36*
X131046958Y-96180710D02*
G01*
X131061276Y-96182834D01*
X131075317Y-96186351D01*
X131088946Y-96191228D01*
X131102031Y-96197417D01*
X131114447Y-96204858D01*
X131126073Y-96213481D01*
X131136798Y-96223202D01*
X131146519Y-96233927D01*
X131155142Y-96245553D01*
X131162583Y-96257969D01*
X131168772Y-96271054D01*
X131173649Y-96284683D01*
X131177166Y-96298724D01*
X131179290Y-96313042D01*
X131180000Y-96327500D01*
X131180000Y-96672500D01*
X131179290Y-96686958D01*
X131177166Y-96701276D01*
X131173649Y-96715317D01*
X131168772Y-96728946D01*
X131162583Y-96742031D01*
X131155142Y-96754447D01*
X131146519Y-96766073D01*
X131136798Y-96776798D01*
X131126073Y-96786519D01*
X131114447Y-96795142D01*
X131102031Y-96802583D01*
X131088946Y-96808772D01*
X131075317Y-96813649D01*
X131061276Y-96817166D01*
X131046958Y-96819290D01*
X131032500Y-96820000D01*
X130737500Y-96820000D01*
X130723042Y-96819290D01*
X130708724Y-96817166D01*
X130694683Y-96813649D01*
X130681054Y-96808772D01*
X130667969Y-96802583D01*
X130655553Y-96795142D01*
X130643927Y-96786519D01*
X130633202Y-96776798D01*
X130623481Y-96766073D01*
X130614858Y-96754447D01*
X130607417Y-96742031D01*
X130601228Y-96728946D01*
X130596351Y-96715317D01*
X130592834Y-96701276D01*
X130590710Y-96686958D01*
X130590000Y-96672500D01*
X130590000Y-96327500D01*
X130590710Y-96313042D01*
X130592834Y-96298724D01*
X130596351Y-96284683D01*
X130601228Y-96271054D01*
X130607417Y-96257969D01*
X130614858Y-96245553D01*
X130623481Y-96233927D01*
X130633202Y-96223202D01*
X130643927Y-96213481D01*
X130655553Y-96204858D01*
X130667969Y-96197417D01*
X130681054Y-96191228D01*
X130694683Y-96186351D01*
X130708724Y-96182834D01*
X130723042Y-96180710D01*
X130737500Y-96180000D01*
X131032500Y-96180000D01*
X131046958Y-96180710D01*
X131046958Y-96180710D01*
G37*
D13*
X130885000Y-96500000D03*
D12*
G36*
X130076958Y-94980710D02*
G01*
X130091276Y-94982834D01*
X130105317Y-94986351D01*
X130118946Y-94991228D01*
X130132031Y-94997417D01*
X130144447Y-95004858D01*
X130156073Y-95013481D01*
X130166798Y-95023202D01*
X130176519Y-95033927D01*
X130185142Y-95045553D01*
X130192583Y-95057969D01*
X130198772Y-95071054D01*
X130203649Y-95084683D01*
X130207166Y-95098724D01*
X130209290Y-95113042D01*
X130210000Y-95127500D01*
X130210000Y-95472500D01*
X130209290Y-95486958D01*
X130207166Y-95501276D01*
X130203649Y-95515317D01*
X130198772Y-95528946D01*
X130192583Y-95542031D01*
X130185142Y-95554447D01*
X130176519Y-95566073D01*
X130166798Y-95576798D01*
X130156073Y-95586519D01*
X130144447Y-95595142D01*
X130132031Y-95602583D01*
X130118946Y-95608772D01*
X130105317Y-95613649D01*
X130091276Y-95617166D01*
X130076958Y-95619290D01*
X130062500Y-95620000D01*
X129767500Y-95620000D01*
X129753042Y-95619290D01*
X129738724Y-95617166D01*
X129724683Y-95613649D01*
X129711054Y-95608772D01*
X129697969Y-95602583D01*
X129685553Y-95595142D01*
X129673927Y-95586519D01*
X129663202Y-95576798D01*
X129653481Y-95566073D01*
X129644858Y-95554447D01*
X129637417Y-95542031D01*
X129631228Y-95528946D01*
X129626351Y-95515317D01*
X129622834Y-95501276D01*
X129620710Y-95486958D01*
X129620000Y-95472500D01*
X129620000Y-95127500D01*
X129620710Y-95113042D01*
X129622834Y-95098724D01*
X129626351Y-95084683D01*
X129631228Y-95071054D01*
X129637417Y-95057969D01*
X129644858Y-95045553D01*
X129653481Y-95033927D01*
X129663202Y-95023202D01*
X129673927Y-95013481D01*
X129685553Y-95004858D01*
X129697969Y-94997417D01*
X129711054Y-94991228D01*
X129724683Y-94986351D01*
X129738724Y-94982834D01*
X129753042Y-94980710D01*
X129767500Y-94980000D01*
X130062500Y-94980000D01*
X130076958Y-94980710D01*
X130076958Y-94980710D01*
G37*
D13*
X129915000Y-95300000D03*
D12*
G36*
X131046958Y-94980710D02*
G01*
X131061276Y-94982834D01*
X131075317Y-94986351D01*
X131088946Y-94991228D01*
X131102031Y-94997417D01*
X131114447Y-95004858D01*
X131126073Y-95013481D01*
X131136798Y-95023202D01*
X131146519Y-95033927D01*
X131155142Y-95045553D01*
X131162583Y-95057969D01*
X131168772Y-95071054D01*
X131173649Y-95084683D01*
X131177166Y-95098724D01*
X131179290Y-95113042D01*
X131180000Y-95127500D01*
X131180000Y-95472500D01*
X131179290Y-95486958D01*
X131177166Y-95501276D01*
X131173649Y-95515317D01*
X131168772Y-95528946D01*
X131162583Y-95542031D01*
X131155142Y-95554447D01*
X131146519Y-95566073D01*
X131136798Y-95576798D01*
X131126073Y-95586519D01*
X131114447Y-95595142D01*
X131102031Y-95602583D01*
X131088946Y-95608772D01*
X131075317Y-95613649D01*
X131061276Y-95617166D01*
X131046958Y-95619290D01*
X131032500Y-95620000D01*
X130737500Y-95620000D01*
X130723042Y-95619290D01*
X130708724Y-95617166D01*
X130694683Y-95613649D01*
X130681054Y-95608772D01*
X130667969Y-95602583D01*
X130655553Y-95595142D01*
X130643927Y-95586519D01*
X130633202Y-95576798D01*
X130623481Y-95566073D01*
X130614858Y-95554447D01*
X130607417Y-95542031D01*
X130601228Y-95528946D01*
X130596351Y-95515317D01*
X130592834Y-95501276D01*
X130590710Y-95486958D01*
X130590000Y-95472500D01*
X130590000Y-95127500D01*
X130590710Y-95113042D01*
X130592834Y-95098724D01*
X130596351Y-95084683D01*
X130601228Y-95071054D01*
X130607417Y-95057969D01*
X130614858Y-95045553D01*
X130623481Y-95033927D01*
X130633202Y-95023202D01*
X130643927Y-95013481D01*
X130655553Y-95004858D01*
X130667969Y-94997417D01*
X130681054Y-94991228D01*
X130694683Y-94986351D01*
X130708724Y-94982834D01*
X130723042Y-94980710D01*
X130737500Y-94980000D01*
X131032500Y-94980000D01*
X131046958Y-94980710D01*
X131046958Y-94980710D01*
G37*
D13*
X130885000Y-95300000D03*
D12*
G36*
X130076958Y-97380710D02*
G01*
X130091276Y-97382834D01*
X130105317Y-97386351D01*
X130118946Y-97391228D01*
X130132031Y-97397417D01*
X130144447Y-97404858D01*
X130156073Y-97413481D01*
X130166798Y-97423202D01*
X130176519Y-97433927D01*
X130185142Y-97445553D01*
X130192583Y-97457969D01*
X130198772Y-97471054D01*
X130203649Y-97484683D01*
X130207166Y-97498724D01*
X130209290Y-97513042D01*
X130210000Y-97527500D01*
X130210000Y-97872500D01*
X130209290Y-97886958D01*
X130207166Y-97901276D01*
X130203649Y-97915317D01*
X130198772Y-97928946D01*
X130192583Y-97942031D01*
X130185142Y-97954447D01*
X130176519Y-97966073D01*
X130166798Y-97976798D01*
X130156073Y-97986519D01*
X130144447Y-97995142D01*
X130132031Y-98002583D01*
X130118946Y-98008772D01*
X130105317Y-98013649D01*
X130091276Y-98017166D01*
X130076958Y-98019290D01*
X130062500Y-98020000D01*
X129767500Y-98020000D01*
X129753042Y-98019290D01*
X129738724Y-98017166D01*
X129724683Y-98013649D01*
X129711054Y-98008772D01*
X129697969Y-98002583D01*
X129685553Y-97995142D01*
X129673927Y-97986519D01*
X129663202Y-97976798D01*
X129653481Y-97966073D01*
X129644858Y-97954447D01*
X129637417Y-97942031D01*
X129631228Y-97928946D01*
X129626351Y-97915317D01*
X129622834Y-97901276D01*
X129620710Y-97886958D01*
X129620000Y-97872500D01*
X129620000Y-97527500D01*
X129620710Y-97513042D01*
X129622834Y-97498724D01*
X129626351Y-97484683D01*
X129631228Y-97471054D01*
X129637417Y-97457969D01*
X129644858Y-97445553D01*
X129653481Y-97433927D01*
X129663202Y-97423202D01*
X129673927Y-97413481D01*
X129685553Y-97404858D01*
X129697969Y-97397417D01*
X129711054Y-97391228D01*
X129724683Y-97386351D01*
X129738724Y-97382834D01*
X129753042Y-97380710D01*
X129767500Y-97380000D01*
X130062500Y-97380000D01*
X130076958Y-97380710D01*
X130076958Y-97380710D01*
G37*
D13*
X129915000Y-97700000D03*
D12*
G36*
X131046958Y-97380710D02*
G01*
X131061276Y-97382834D01*
X131075317Y-97386351D01*
X131088946Y-97391228D01*
X131102031Y-97397417D01*
X131114447Y-97404858D01*
X131126073Y-97413481D01*
X131136798Y-97423202D01*
X131146519Y-97433927D01*
X131155142Y-97445553D01*
X131162583Y-97457969D01*
X131168772Y-97471054D01*
X131173649Y-97484683D01*
X131177166Y-97498724D01*
X131179290Y-97513042D01*
X131180000Y-97527500D01*
X131180000Y-97872500D01*
X131179290Y-97886958D01*
X131177166Y-97901276D01*
X131173649Y-97915317D01*
X131168772Y-97928946D01*
X131162583Y-97942031D01*
X131155142Y-97954447D01*
X131146519Y-97966073D01*
X131136798Y-97976798D01*
X131126073Y-97986519D01*
X131114447Y-97995142D01*
X131102031Y-98002583D01*
X131088946Y-98008772D01*
X131075317Y-98013649D01*
X131061276Y-98017166D01*
X131046958Y-98019290D01*
X131032500Y-98020000D01*
X130737500Y-98020000D01*
X130723042Y-98019290D01*
X130708724Y-98017166D01*
X130694683Y-98013649D01*
X130681054Y-98008772D01*
X130667969Y-98002583D01*
X130655553Y-97995142D01*
X130643927Y-97986519D01*
X130633202Y-97976798D01*
X130623481Y-97966073D01*
X130614858Y-97954447D01*
X130607417Y-97942031D01*
X130601228Y-97928946D01*
X130596351Y-97915317D01*
X130592834Y-97901276D01*
X130590710Y-97886958D01*
X130590000Y-97872500D01*
X130590000Y-97527500D01*
X130590710Y-97513042D01*
X130592834Y-97498724D01*
X130596351Y-97484683D01*
X130601228Y-97471054D01*
X130607417Y-97457969D01*
X130614858Y-97445553D01*
X130623481Y-97433927D01*
X130633202Y-97423202D01*
X130643927Y-97413481D01*
X130655553Y-97404858D01*
X130667969Y-97397417D01*
X130681054Y-97391228D01*
X130694683Y-97386351D01*
X130708724Y-97382834D01*
X130723042Y-97380710D01*
X130737500Y-97380000D01*
X131032500Y-97380000D01*
X131046958Y-97380710D01*
X131046958Y-97380710D01*
G37*
D13*
X130885000Y-97700000D03*
D12*
G36*
X120346958Y-96780710D02*
G01*
X120361276Y-96782834D01*
X120375317Y-96786351D01*
X120388946Y-96791228D01*
X120402031Y-96797417D01*
X120414447Y-96804858D01*
X120426073Y-96813481D01*
X120436798Y-96823202D01*
X120446519Y-96833927D01*
X120455142Y-96845553D01*
X120462583Y-96857969D01*
X120468772Y-96871054D01*
X120473649Y-96884683D01*
X120477166Y-96898724D01*
X120479290Y-96913042D01*
X120480000Y-96927500D01*
X120480000Y-97272500D01*
X120479290Y-97286958D01*
X120477166Y-97301276D01*
X120473649Y-97315317D01*
X120468772Y-97328946D01*
X120462583Y-97342031D01*
X120455142Y-97354447D01*
X120446519Y-97366073D01*
X120436798Y-97376798D01*
X120426073Y-97386519D01*
X120414447Y-97395142D01*
X120402031Y-97402583D01*
X120388946Y-97408772D01*
X120375317Y-97413649D01*
X120361276Y-97417166D01*
X120346958Y-97419290D01*
X120332500Y-97420000D01*
X120037500Y-97420000D01*
X120023042Y-97419290D01*
X120008724Y-97417166D01*
X119994683Y-97413649D01*
X119981054Y-97408772D01*
X119967969Y-97402583D01*
X119955553Y-97395142D01*
X119943927Y-97386519D01*
X119933202Y-97376798D01*
X119923481Y-97366073D01*
X119914858Y-97354447D01*
X119907417Y-97342031D01*
X119901228Y-97328946D01*
X119896351Y-97315317D01*
X119892834Y-97301276D01*
X119890710Y-97286958D01*
X119890000Y-97272500D01*
X119890000Y-96927500D01*
X119890710Y-96913042D01*
X119892834Y-96898724D01*
X119896351Y-96884683D01*
X119901228Y-96871054D01*
X119907417Y-96857969D01*
X119914858Y-96845553D01*
X119923481Y-96833927D01*
X119933202Y-96823202D01*
X119943927Y-96813481D01*
X119955553Y-96804858D01*
X119967969Y-96797417D01*
X119981054Y-96791228D01*
X119994683Y-96786351D01*
X120008724Y-96782834D01*
X120023042Y-96780710D01*
X120037500Y-96780000D01*
X120332500Y-96780000D01*
X120346958Y-96780710D01*
X120346958Y-96780710D01*
G37*
D13*
X120185000Y-97100000D03*
D12*
G36*
X119376958Y-96780710D02*
G01*
X119391276Y-96782834D01*
X119405317Y-96786351D01*
X119418946Y-96791228D01*
X119432031Y-96797417D01*
X119444447Y-96804858D01*
X119456073Y-96813481D01*
X119466798Y-96823202D01*
X119476519Y-96833927D01*
X119485142Y-96845553D01*
X119492583Y-96857969D01*
X119498772Y-96871054D01*
X119503649Y-96884683D01*
X119507166Y-96898724D01*
X119509290Y-96913042D01*
X119510000Y-96927500D01*
X119510000Y-97272500D01*
X119509290Y-97286958D01*
X119507166Y-97301276D01*
X119503649Y-97315317D01*
X119498772Y-97328946D01*
X119492583Y-97342031D01*
X119485142Y-97354447D01*
X119476519Y-97366073D01*
X119466798Y-97376798D01*
X119456073Y-97386519D01*
X119444447Y-97395142D01*
X119432031Y-97402583D01*
X119418946Y-97408772D01*
X119405317Y-97413649D01*
X119391276Y-97417166D01*
X119376958Y-97419290D01*
X119362500Y-97420000D01*
X119067500Y-97420000D01*
X119053042Y-97419290D01*
X119038724Y-97417166D01*
X119024683Y-97413649D01*
X119011054Y-97408772D01*
X118997969Y-97402583D01*
X118985553Y-97395142D01*
X118973927Y-97386519D01*
X118963202Y-97376798D01*
X118953481Y-97366073D01*
X118944858Y-97354447D01*
X118937417Y-97342031D01*
X118931228Y-97328946D01*
X118926351Y-97315317D01*
X118922834Y-97301276D01*
X118920710Y-97286958D01*
X118920000Y-97272500D01*
X118920000Y-96927500D01*
X118920710Y-96913042D01*
X118922834Y-96898724D01*
X118926351Y-96884683D01*
X118931228Y-96871054D01*
X118937417Y-96857969D01*
X118944858Y-96845553D01*
X118953481Y-96833927D01*
X118963202Y-96823202D01*
X118973927Y-96813481D01*
X118985553Y-96804858D01*
X118997969Y-96797417D01*
X119011054Y-96791228D01*
X119024683Y-96786351D01*
X119038724Y-96782834D01*
X119053042Y-96780710D01*
X119067500Y-96780000D01*
X119362500Y-96780000D01*
X119376958Y-96780710D01*
X119376958Y-96780710D01*
G37*
D13*
X119215000Y-97100000D03*
D12*
G36*
X120346958Y-97980710D02*
G01*
X120361276Y-97982834D01*
X120375317Y-97986351D01*
X120388946Y-97991228D01*
X120402031Y-97997417D01*
X120414447Y-98004858D01*
X120426073Y-98013481D01*
X120436798Y-98023202D01*
X120446519Y-98033927D01*
X120455142Y-98045553D01*
X120462583Y-98057969D01*
X120468772Y-98071054D01*
X120473649Y-98084683D01*
X120477166Y-98098724D01*
X120479290Y-98113042D01*
X120480000Y-98127500D01*
X120480000Y-98472500D01*
X120479290Y-98486958D01*
X120477166Y-98501276D01*
X120473649Y-98515317D01*
X120468772Y-98528946D01*
X120462583Y-98542031D01*
X120455142Y-98554447D01*
X120446519Y-98566073D01*
X120436798Y-98576798D01*
X120426073Y-98586519D01*
X120414447Y-98595142D01*
X120402031Y-98602583D01*
X120388946Y-98608772D01*
X120375317Y-98613649D01*
X120361276Y-98617166D01*
X120346958Y-98619290D01*
X120332500Y-98620000D01*
X120037500Y-98620000D01*
X120023042Y-98619290D01*
X120008724Y-98617166D01*
X119994683Y-98613649D01*
X119981054Y-98608772D01*
X119967969Y-98602583D01*
X119955553Y-98595142D01*
X119943927Y-98586519D01*
X119933202Y-98576798D01*
X119923481Y-98566073D01*
X119914858Y-98554447D01*
X119907417Y-98542031D01*
X119901228Y-98528946D01*
X119896351Y-98515317D01*
X119892834Y-98501276D01*
X119890710Y-98486958D01*
X119890000Y-98472500D01*
X119890000Y-98127500D01*
X119890710Y-98113042D01*
X119892834Y-98098724D01*
X119896351Y-98084683D01*
X119901228Y-98071054D01*
X119907417Y-98057969D01*
X119914858Y-98045553D01*
X119923481Y-98033927D01*
X119933202Y-98023202D01*
X119943927Y-98013481D01*
X119955553Y-98004858D01*
X119967969Y-97997417D01*
X119981054Y-97991228D01*
X119994683Y-97986351D01*
X120008724Y-97982834D01*
X120023042Y-97980710D01*
X120037500Y-97980000D01*
X120332500Y-97980000D01*
X120346958Y-97980710D01*
X120346958Y-97980710D01*
G37*
D13*
X120185000Y-98300000D03*
D12*
G36*
X119376958Y-97980710D02*
G01*
X119391276Y-97982834D01*
X119405317Y-97986351D01*
X119418946Y-97991228D01*
X119432031Y-97997417D01*
X119444447Y-98004858D01*
X119456073Y-98013481D01*
X119466798Y-98023202D01*
X119476519Y-98033927D01*
X119485142Y-98045553D01*
X119492583Y-98057969D01*
X119498772Y-98071054D01*
X119503649Y-98084683D01*
X119507166Y-98098724D01*
X119509290Y-98113042D01*
X119510000Y-98127500D01*
X119510000Y-98472500D01*
X119509290Y-98486958D01*
X119507166Y-98501276D01*
X119503649Y-98515317D01*
X119498772Y-98528946D01*
X119492583Y-98542031D01*
X119485142Y-98554447D01*
X119476519Y-98566073D01*
X119466798Y-98576798D01*
X119456073Y-98586519D01*
X119444447Y-98595142D01*
X119432031Y-98602583D01*
X119418946Y-98608772D01*
X119405317Y-98613649D01*
X119391276Y-98617166D01*
X119376958Y-98619290D01*
X119362500Y-98620000D01*
X119067500Y-98620000D01*
X119053042Y-98619290D01*
X119038724Y-98617166D01*
X119024683Y-98613649D01*
X119011054Y-98608772D01*
X118997969Y-98602583D01*
X118985553Y-98595142D01*
X118973927Y-98586519D01*
X118963202Y-98576798D01*
X118953481Y-98566073D01*
X118944858Y-98554447D01*
X118937417Y-98542031D01*
X118931228Y-98528946D01*
X118926351Y-98515317D01*
X118922834Y-98501276D01*
X118920710Y-98486958D01*
X118920000Y-98472500D01*
X118920000Y-98127500D01*
X118920710Y-98113042D01*
X118922834Y-98098724D01*
X118926351Y-98084683D01*
X118931228Y-98071054D01*
X118937417Y-98057969D01*
X118944858Y-98045553D01*
X118953481Y-98033927D01*
X118963202Y-98023202D01*
X118973927Y-98013481D01*
X118985553Y-98004858D01*
X118997969Y-97997417D01*
X119011054Y-97991228D01*
X119024683Y-97986351D01*
X119038724Y-97982834D01*
X119053042Y-97980710D01*
X119067500Y-97980000D01*
X119362500Y-97980000D01*
X119376958Y-97980710D01*
X119376958Y-97980710D01*
G37*
D13*
X119215000Y-98300000D03*
D12*
G36*
X120346958Y-99280710D02*
G01*
X120361276Y-99282834D01*
X120375317Y-99286351D01*
X120388946Y-99291228D01*
X120402031Y-99297417D01*
X120414447Y-99304858D01*
X120426073Y-99313481D01*
X120436798Y-99323202D01*
X120446519Y-99333927D01*
X120455142Y-99345553D01*
X120462583Y-99357969D01*
X120468772Y-99371054D01*
X120473649Y-99384683D01*
X120477166Y-99398724D01*
X120479290Y-99413042D01*
X120480000Y-99427500D01*
X120480000Y-99772500D01*
X120479290Y-99786958D01*
X120477166Y-99801276D01*
X120473649Y-99815317D01*
X120468772Y-99828946D01*
X120462583Y-99842031D01*
X120455142Y-99854447D01*
X120446519Y-99866073D01*
X120436798Y-99876798D01*
X120426073Y-99886519D01*
X120414447Y-99895142D01*
X120402031Y-99902583D01*
X120388946Y-99908772D01*
X120375317Y-99913649D01*
X120361276Y-99917166D01*
X120346958Y-99919290D01*
X120332500Y-99920000D01*
X120037500Y-99920000D01*
X120023042Y-99919290D01*
X120008724Y-99917166D01*
X119994683Y-99913649D01*
X119981054Y-99908772D01*
X119967969Y-99902583D01*
X119955553Y-99895142D01*
X119943927Y-99886519D01*
X119933202Y-99876798D01*
X119923481Y-99866073D01*
X119914858Y-99854447D01*
X119907417Y-99842031D01*
X119901228Y-99828946D01*
X119896351Y-99815317D01*
X119892834Y-99801276D01*
X119890710Y-99786958D01*
X119890000Y-99772500D01*
X119890000Y-99427500D01*
X119890710Y-99413042D01*
X119892834Y-99398724D01*
X119896351Y-99384683D01*
X119901228Y-99371054D01*
X119907417Y-99357969D01*
X119914858Y-99345553D01*
X119923481Y-99333927D01*
X119933202Y-99323202D01*
X119943927Y-99313481D01*
X119955553Y-99304858D01*
X119967969Y-99297417D01*
X119981054Y-99291228D01*
X119994683Y-99286351D01*
X120008724Y-99282834D01*
X120023042Y-99280710D01*
X120037500Y-99280000D01*
X120332500Y-99280000D01*
X120346958Y-99280710D01*
X120346958Y-99280710D01*
G37*
D13*
X120185000Y-99600000D03*
D12*
G36*
X119376958Y-99280710D02*
G01*
X119391276Y-99282834D01*
X119405317Y-99286351D01*
X119418946Y-99291228D01*
X119432031Y-99297417D01*
X119444447Y-99304858D01*
X119456073Y-99313481D01*
X119466798Y-99323202D01*
X119476519Y-99333927D01*
X119485142Y-99345553D01*
X119492583Y-99357969D01*
X119498772Y-99371054D01*
X119503649Y-99384683D01*
X119507166Y-99398724D01*
X119509290Y-99413042D01*
X119510000Y-99427500D01*
X119510000Y-99772500D01*
X119509290Y-99786958D01*
X119507166Y-99801276D01*
X119503649Y-99815317D01*
X119498772Y-99828946D01*
X119492583Y-99842031D01*
X119485142Y-99854447D01*
X119476519Y-99866073D01*
X119466798Y-99876798D01*
X119456073Y-99886519D01*
X119444447Y-99895142D01*
X119432031Y-99902583D01*
X119418946Y-99908772D01*
X119405317Y-99913649D01*
X119391276Y-99917166D01*
X119376958Y-99919290D01*
X119362500Y-99920000D01*
X119067500Y-99920000D01*
X119053042Y-99919290D01*
X119038724Y-99917166D01*
X119024683Y-99913649D01*
X119011054Y-99908772D01*
X118997969Y-99902583D01*
X118985553Y-99895142D01*
X118973927Y-99886519D01*
X118963202Y-99876798D01*
X118953481Y-99866073D01*
X118944858Y-99854447D01*
X118937417Y-99842031D01*
X118931228Y-99828946D01*
X118926351Y-99815317D01*
X118922834Y-99801276D01*
X118920710Y-99786958D01*
X118920000Y-99772500D01*
X118920000Y-99427500D01*
X118920710Y-99413042D01*
X118922834Y-99398724D01*
X118926351Y-99384683D01*
X118931228Y-99371054D01*
X118937417Y-99357969D01*
X118944858Y-99345553D01*
X118953481Y-99333927D01*
X118963202Y-99323202D01*
X118973927Y-99313481D01*
X118985553Y-99304858D01*
X118997969Y-99297417D01*
X119011054Y-99291228D01*
X119024683Y-99286351D01*
X119038724Y-99282834D01*
X119053042Y-99280710D01*
X119067500Y-99280000D01*
X119362500Y-99280000D01*
X119376958Y-99280710D01*
X119376958Y-99280710D01*
G37*
D13*
X119215000Y-99600000D03*
D12*
G36*
X130076958Y-98580710D02*
G01*
X130091276Y-98582834D01*
X130105317Y-98586351D01*
X130118946Y-98591228D01*
X130132031Y-98597417D01*
X130144447Y-98604858D01*
X130156073Y-98613481D01*
X130166798Y-98623202D01*
X130176519Y-98633927D01*
X130185142Y-98645553D01*
X130192583Y-98657969D01*
X130198772Y-98671054D01*
X130203649Y-98684683D01*
X130207166Y-98698724D01*
X130209290Y-98713042D01*
X130210000Y-98727500D01*
X130210000Y-99072500D01*
X130209290Y-99086958D01*
X130207166Y-99101276D01*
X130203649Y-99115317D01*
X130198772Y-99128946D01*
X130192583Y-99142031D01*
X130185142Y-99154447D01*
X130176519Y-99166073D01*
X130166798Y-99176798D01*
X130156073Y-99186519D01*
X130144447Y-99195142D01*
X130132031Y-99202583D01*
X130118946Y-99208772D01*
X130105317Y-99213649D01*
X130091276Y-99217166D01*
X130076958Y-99219290D01*
X130062500Y-99220000D01*
X129767500Y-99220000D01*
X129753042Y-99219290D01*
X129738724Y-99217166D01*
X129724683Y-99213649D01*
X129711054Y-99208772D01*
X129697969Y-99202583D01*
X129685553Y-99195142D01*
X129673927Y-99186519D01*
X129663202Y-99176798D01*
X129653481Y-99166073D01*
X129644858Y-99154447D01*
X129637417Y-99142031D01*
X129631228Y-99128946D01*
X129626351Y-99115317D01*
X129622834Y-99101276D01*
X129620710Y-99086958D01*
X129620000Y-99072500D01*
X129620000Y-98727500D01*
X129620710Y-98713042D01*
X129622834Y-98698724D01*
X129626351Y-98684683D01*
X129631228Y-98671054D01*
X129637417Y-98657969D01*
X129644858Y-98645553D01*
X129653481Y-98633927D01*
X129663202Y-98623202D01*
X129673927Y-98613481D01*
X129685553Y-98604858D01*
X129697969Y-98597417D01*
X129711054Y-98591228D01*
X129724683Y-98586351D01*
X129738724Y-98582834D01*
X129753042Y-98580710D01*
X129767500Y-98580000D01*
X130062500Y-98580000D01*
X130076958Y-98580710D01*
X130076958Y-98580710D01*
G37*
D13*
X129915000Y-98900000D03*
D12*
G36*
X131046958Y-98580710D02*
G01*
X131061276Y-98582834D01*
X131075317Y-98586351D01*
X131088946Y-98591228D01*
X131102031Y-98597417D01*
X131114447Y-98604858D01*
X131126073Y-98613481D01*
X131136798Y-98623202D01*
X131146519Y-98633927D01*
X131155142Y-98645553D01*
X131162583Y-98657969D01*
X131168772Y-98671054D01*
X131173649Y-98684683D01*
X131177166Y-98698724D01*
X131179290Y-98713042D01*
X131180000Y-98727500D01*
X131180000Y-99072500D01*
X131179290Y-99086958D01*
X131177166Y-99101276D01*
X131173649Y-99115317D01*
X131168772Y-99128946D01*
X131162583Y-99142031D01*
X131155142Y-99154447D01*
X131146519Y-99166073D01*
X131136798Y-99176798D01*
X131126073Y-99186519D01*
X131114447Y-99195142D01*
X131102031Y-99202583D01*
X131088946Y-99208772D01*
X131075317Y-99213649D01*
X131061276Y-99217166D01*
X131046958Y-99219290D01*
X131032500Y-99220000D01*
X130737500Y-99220000D01*
X130723042Y-99219290D01*
X130708724Y-99217166D01*
X130694683Y-99213649D01*
X130681054Y-99208772D01*
X130667969Y-99202583D01*
X130655553Y-99195142D01*
X130643927Y-99186519D01*
X130633202Y-99176798D01*
X130623481Y-99166073D01*
X130614858Y-99154447D01*
X130607417Y-99142031D01*
X130601228Y-99128946D01*
X130596351Y-99115317D01*
X130592834Y-99101276D01*
X130590710Y-99086958D01*
X130590000Y-99072500D01*
X130590000Y-98727500D01*
X130590710Y-98713042D01*
X130592834Y-98698724D01*
X130596351Y-98684683D01*
X130601228Y-98671054D01*
X130607417Y-98657969D01*
X130614858Y-98645553D01*
X130623481Y-98633927D01*
X130633202Y-98623202D01*
X130643927Y-98613481D01*
X130655553Y-98604858D01*
X130667969Y-98597417D01*
X130681054Y-98591228D01*
X130694683Y-98586351D01*
X130708724Y-98582834D01*
X130723042Y-98580710D01*
X130737500Y-98580000D01*
X131032500Y-98580000D01*
X131046958Y-98580710D01*
X131046958Y-98580710D01*
G37*
D13*
X130885000Y-98900000D03*
D12*
G36*
X126476958Y-106580710D02*
G01*
X126491276Y-106582834D01*
X126505317Y-106586351D01*
X126518946Y-106591228D01*
X126532031Y-106597417D01*
X126544447Y-106604858D01*
X126556073Y-106613481D01*
X126566798Y-106623202D01*
X126576519Y-106633927D01*
X126585142Y-106645553D01*
X126592583Y-106657969D01*
X126598772Y-106671054D01*
X126603649Y-106684683D01*
X126607166Y-106698724D01*
X126609290Y-106713042D01*
X126610000Y-106727500D01*
X126610000Y-107072500D01*
X126609290Y-107086958D01*
X126607166Y-107101276D01*
X126603649Y-107115317D01*
X126598772Y-107128946D01*
X126592583Y-107142031D01*
X126585142Y-107154447D01*
X126576519Y-107166073D01*
X126566798Y-107176798D01*
X126556073Y-107186519D01*
X126544447Y-107195142D01*
X126532031Y-107202583D01*
X126518946Y-107208772D01*
X126505317Y-107213649D01*
X126491276Y-107217166D01*
X126476958Y-107219290D01*
X126462500Y-107220000D01*
X126167500Y-107220000D01*
X126153042Y-107219290D01*
X126138724Y-107217166D01*
X126124683Y-107213649D01*
X126111054Y-107208772D01*
X126097969Y-107202583D01*
X126085553Y-107195142D01*
X126073927Y-107186519D01*
X126063202Y-107176798D01*
X126053481Y-107166073D01*
X126044858Y-107154447D01*
X126037417Y-107142031D01*
X126031228Y-107128946D01*
X126026351Y-107115317D01*
X126022834Y-107101276D01*
X126020710Y-107086958D01*
X126020000Y-107072500D01*
X126020000Y-106727500D01*
X126020710Y-106713042D01*
X126022834Y-106698724D01*
X126026351Y-106684683D01*
X126031228Y-106671054D01*
X126037417Y-106657969D01*
X126044858Y-106645553D01*
X126053481Y-106633927D01*
X126063202Y-106623202D01*
X126073927Y-106613481D01*
X126085553Y-106604858D01*
X126097969Y-106597417D01*
X126111054Y-106591228D01*
X126124683Y-106586351D01*
X126138724Y-106582834D01*
X126153042Y-106580710D01*
X126167500Y-106580000D01*
X126462500Y-106580000D01*
X126476958Y-106580710D01*
X126476958Y-106580710D01*
G37*
D13*
X126315000Y-106900000D03*
D12*
G36*
X127446958Y-106580710D02*
G01*
X127461276Y-106582834D01*
X127475317Y-106586351D01*
X127488946Y-106591228D01*
X127502031Y-106597417D01*
X127514447Y-106604858D01*
X127526073Y-106613481D01*
X127536798Y-106623202D01*
X127546519Y-106633927D01*
X127555142Y-106645553D01*
X127562583Y-106657969D01*
X127568772Y-106671054D01*
X127573649Y-106684683D01*
X127577166Y-106698724D01*
X127579290Y-106713042D01*
X127580000Y-106727500D01*
X127580000Y-107072500D01*
X127579290Y-107086958D01*
X127577166Y-107101276D01*
X127573649Y-107115317D01*
X127568772Y-107128946D01*
X127562583Y-107142031D01*
X127555142Y-107154447D01*
X127546519Y-107166073D01*
X127536798Y-107176798D01*
X127526073Y-107186519D01*
X127514447Y-107195142D01*
X127502031Y-107202583D01*
X127488946Y-107208772D01*
X127475317Y-107213649D01*
X127461276Y-107217166D01*
X127446958Y-107219290D01*
X127432500Y-107220000D01*
X127137500Y-107220000D01*
X127123042Y-107219290D01*
X127108724Y-107217166D01*
X127094683Y-107213649D01*
X127081054Y-107208772D01*
X127067969Y-107202583D01*
X127055553Y-107195142D01*
X127043927Y-107186519D01*
X127033202Y-107176798D01*
X127023481Y-107166073D01*
X127014858Y-107154447D01*
X127007417Y-107142031D01*
X127001228Y-107128946D01*
X126996351Y-107115317D01*
X126992834Y-107101276D01*
X126990710Y-107086958D01*
X126990000Y-107072500D01*
X126990000Y-106727500D01*
X126990710Y-106713042D01*
X126992834Y-106698724D01*
X126996351Y-106684683D01*
X127001228Y-106671054D01*
X127007417Y-106657969D01*
X127014858Y-106645553D01*
X127023481Y-106633927D01*
X127033202Y-106623202D01*
X127043927Y-106613481D01*
X127055553Y-106604858D01*
X127067969Y-106597417D01*
X127081054Y-106591228D01*
X127094683Y-106586351D01*
X127108724Y-106582834D01*
X127123042Y-106580710D01*
X127137500Y-106580000D01*
X127432500Y-106580000D01*
X127446958Y-106580710D01*
X127446958Y-106580710D01*
G37*
D13*
X127285000Y-106900000D03*
D12*
G36*
X121346958Y-101680710D02*
G01*
X121361276Y-101682834D01*
X121375317Y-101686351D01*
X121388946Y-101691228D01*
X121402031Y-101697417D01*
X121414447Y-101704858D01*
X121426073Y-101713481D01*
X121436798Y-101723202D01*
X121446519Y-101733927D01*
X121455142Y-101745553D01*
X121462583Y-101757969D01*
X121468772Y-101771054D01*
X121473649Y-101784683D01*
X121477166Y-101798724D01*
X121479290Y-101813042D01*
X121480000Y-101827500D01*
X121480000Y-102172500D01*
X121479290Y-102186958D01*
X121477166Y-102201276D01*
X121473649Y-102215317D01*
X121468772Y-102228946D01*
X121462583Y-102242031D01*
X121455142Y-102254447D01*
X121446519Y-102266073D01*
X121436798Y-102276798D01*
X121426073Y-102286519D01*
X121414447Y-102295142D01*
X121402031Y-102302583D01*
X121388946Y-102308772D01*
X121375317Y-102313649D01*
X121361276Y-102317166D01*
X121346958Y-102319290D01*
X121332500Y-102320000D01*
X121037500Y-102320000D01*
X121023042Y-102319290D01*
X121008724Y-102317166D01*
X120994683Y-102313649D01*
X120981054Y-102308772D01*
X120967969Y-102302583D01*
X120955553Y-102295142D01*
X120943927Y-102286519D01*
X120933202Y-102276798D01*
X120923481Y-102266073D01*
X120914858Y-102254447D01*
X120907417Y-102242031D01*
X120901228Y-102228946D01*
X120896351Y-102215317D01*
X120892834Y-102201276D01*
X120890710Y-102186958D01*
X120890000Y-102172500D01*
X120890000Y-101827500D01*
X120890710Y-101813042D01*
X120892834Y-101798724D01*
X120896351Y-101784683D01*
X120901228Y-101771054D01*
X120907417Y-101757969D01*
X120914858Y-101745553D01*
X120923481Y-101733927D01*
X120933202Y-101723202D01*
X120943927Y-101713481D01*
X120955553Y-101704858D01*
X120967969Y-101697417D01*
X120981054Y-101691228D01*
X120994683Y-101686351D01*
X121008724Y-101682834D01*
X121023042Y-101680710D01*
X121037500Y-101680000D01*
X121332500Y-101680000D01*
X121346958Y-101680710D01*
X121346958Y-101680710D01*
G37*
D13*
X121185000Y-102000000D03*
D12*
G36*
X120376958Y-101680710D02*
G01*
X120391276Y-101682834D01*
X120405317Y-101686351D01*
X120418946Y-101691228D01*
X120432031Y-101697417D01*
X120444447Y-101704858D01*
X120456073Y-101713481D01*
X120466798Y-101723202D01*
X120476519Y-101733927D01*
X120485142Y-101745553D01*
X120492583Y-101757969D01*
X120498772Y-101771054D01*
X120503649Y-101784683D01*
X120507166Y-101798724D01*
X120509290Y-101813042D01*
X120510000Y-101827500D01*
X120510000Y-102172500D01*
X120509290Y-102186958D01*
X120507166Y-102201276D01*
X120503649Y-102215317D01*
X120498772Y-102228946D01*
X120492583Y-102242031D01*
X120485142Y-102254447D01*
X120476519Y-102266073D01*
X120466798Y-102276798D01*
X120456073Y-102286519D01*
X120444447Y-102295142D01*
X120432031Y-102302583D01*
X120418946Y-102308772D01*
X120405317Y-102313649D01*
X120391276Y-102317166D01*
X120376958Y-102319290D01*
X120362500Y-102320000D01*
X120067500Y-102320000D01*
X120053042Y-102319290D01*
X120038724Y-102317166D01*
X120024683Y-102313649D01*
X120011054Y-102308772D01*
X119997969Y-102302583D01*
X119985553Y-102295142D01*
X119973927Y-102286519D01*
X119963202Y-102276798D01*
X119953481Y-102266073D01*
X119944858Y-102254447D01*
X119937417Y-102242031D01*
X119931228Y-102228946D01*
X119926351Y-102215317D01*
X119922834Y-102201276D01*
X119920710Y-102186958D01*
X119920000Y-102172500D01*
X119920000Y-101827500D01*
X119920710Y-101813042D01*
X119922834Y-101798724D01*
X119926351Y-101784683D01*
X119931228Y-101771054D01*
X119937417Y-101757969D01*
X119944858Y-101745553D01*
X119953481Y-101733927D01*
X119963202Y-101723202D01*
X119973927Y-101713481D01*
X119985553Y-101704858D01*
X119997969Y-101697417D01*
X120011054Y-101691228D01*
X120024683Y-101686351D01*
X120038724Y-101682834D01*
X120053042Y-101680710D01*
X120067500Y-101680000D01*
X120362500Y-101680000D01*
X120376958Y-101680710D01*
X120376958Y-101680710D01*
G37*
D13*
X120215000Y-102000000D03*
D12*
G36*
X131346958Y-104280710D02*
G01*
X131361276Y-104282834D01*
X131375317Y-104286351D01*
X131388946Y-104291228D01*
X131402031Y-104297417D01*
X131414447Y-104304858D01*
X131426073Y-104313481D01*
X131436798Y-104323202D01*
X131446519Y-104333927D01*
X131455142Y-104345553D01*
X131462583Y-104357969D01*
X131468772Y-104371054D01*
X131473649Y-104384683D01*
X131477166Y-104398724D01*
X131479290Y-104413042D01*
X131480000Y-104427500D01*
X131480000Y-104772500D01*
X131479290Y-104786958D01*
X131477166Y-104801276D01*
X131473649Y-104815317D01*
X131468772Y-104828946D01*
X131462583Y-104842031D01*
X131455142Y-104854447D01*
X131446519Y-104866073D01*
X131436798Y-104876798D01*
X131426073Y-104886519D01*
X131414447Y-104895142D01*
X131402031Y-104902583D01*
X131388946Y-104908772D01*
X131375317Y-104913649D01*
X131361276Y-104917166D01*
X131346958Y-104919290D01*
X131332500Y-104920000D01*
X131037500Y-104920000D01*
X131023042Y-104919290D01*
X131008724Y-104917166D01*
X130994683Y-104913649D01*
X130981054Y-104908772D01*
X130967969Y-104902583D01*
X130955553Y-104895142D01*
X130943927Y-104886519D01*
X130933202Y-104876798D01*
X130923481Y-104866073D01*
X130914858Y-104854447D01*
X130907417Y-104842031D01*
X130901228Y-104828946D01*
X130896351Y-104815317D01*
X130892834Y-104801276D01*
X130890710Y-104786958D01*
X130890000Y-104772500D01*
X130890000Y-104427500D01*
X130890710Y-104413042D01*
X130892834Y-104398724D01*
X130896351Y-104384683D01*
X130901228Y-104371054D01*
X130907417Y-104357969D01*
X130914858Y-104345553D01*
X130923481Y-104333927D01*
X130933202Y-104323202D01*
X130943927Y-104313481D01*
X130955553Y-104304858D01*
X130967969Y-104297417D01*
X130981054Y-104291228D01*
X130994683Y-104286351D01*
X131008724Y-104282834D01*
X131023042Y-104280710D01*
X131037500Y-104280000D01*
X131332500Y-104280000D01*
X131346958Y-104280710D01*
X131346958Y-104280710D01*
G37*
D13*
X131185000Y-104600000D03*
D12*
G36*
X130376958Y-104280710D02*
G01*
X130391276Y-104282834D01*
X130405317Y-104286351D01*
X130418946Y-104291228D01*
X130432031Y-104297417D01*
X130444447Y-104304858D01*
X130456073Y-104313481D01*
X130466798Y-104323202D01*
X130476519Y-104333927D01*
X130485142Y-104345553D01*
X130492583Y-104357969D01*
X130498772Y-104371054D01*
X130503649Y-104384683D01*
X130507166Y-104398724D01*
X130509290Y-104413042D01*
X130510000Y-104427500D01*
X130510000Y-104772500D01*
X130509290Y-104786958D01*
X130507166Y-104801276D01*
X130503649Y-104815317D01*
X130498772Y-104828946D01*
X130492583Y-104842031D01*
X130485142Y-104854447D01*
X130476519Y-104866073D01*
X130466798Y-104876798D01*
X130456073Y-104886519D01*
X130444447Y-104895142D01*
X130432031Y-104902583D01*
X130418946Y-104908772D01*
X130405317Y-104913649D01*
X130391276Y-104917166D01*
X130376958Y-104919290D01*
X130362500Y-104920000D01*
X130067500Y-104920000D01*
X130053042Y-104919290D01*
X130038724Y-104917166D01*
X130024683Y-104913649D01*
X130011054Y-104908772D01*
X129997969Y-104902583D01*
X129985553Y-104895142D01*
X129973927Y-104886519D01*
X129963202Y-104876798D01*
X129953481Y-104866073D01*
X129944858Y-104854447D01*
X129937417Y-104842031D01*
X129931228Y-104828946D01*
X129926351Y-104815317D01*
X129922834Y-104801276D01*
X129920710Y-104786958D01*
X129920000Y-104772500D01*
X129920000Y-104427500D01*
X129920710Y-104413042D01*
X129922834Y-104398724D01*
X129926351Y-104384683D01*
X129931228Y-104371054D01*
X129937417Y-104357969D01*
X129944858Y-104345553D01*
X129953481Y-104333927D01*
X129963202Y-104323202D01*
X129973927Y-104313481D01*
X129985553Y-104304858D01*
X129997969Y-104297417D01*
X130011054Y-104291228D01*
X130024683Y-104286351D01*
X130038724Y-104282834D01*
X130053042Y-104280710D01*
X130067500Y-104280000D01*
X130362500Y-104280000D01*
X130376958Y-104280710D01*
X130376958Y-104280710D01*
G37*
D13*
X130215000Y-104600000D03*
D12*
G36*
X118752691Y-94926053D02*
G01*
X118773926Y-94929203D01*
X118794750Y-94934419D01*
X118814962Y-94941651D01*
X118834368Y-94950830D01*
X118852781Y-94961866D01*
X118870024Y-94974654D01*
X118885930Y-94989070D01*
X118900346Y-95004976D01*
X118913134Y-95022219D01*
X118924170Y-95040632D01*
X118933349Y-95060038D01*
X118940581Y-95080250D01*
X118945797Y-95101074D01*
X118948947Y-95122309D01*
X118950000Y-95143750D01*
X118950000Y-95656250D01*
X118948947Y-95677691D01*
X118945797Y-95698926D01*
X118940581Y-95719750D01*
X118933349Y-95739962D01*
X118924170Y-95759368D01*
X118913134Y-95777781D01*
X118900346Y-95795024D01*
X118885930Y-95810930D01*
X118870024Y-95825346D01*
X118852781Y-95838134D01*
X118834368Y-95849170D01*
X118814962Y-95858349D01*
X118794750Y-95865581D01*
X118773926Y-95870797D01*
X118752691Y-95873947D01*
X118731250Y-95875000D01*
X118293750Y-95875000D01*
X118272309Y-95873947D01*
X118251074Y-95870797D01*
X118230250Y-95865581D01*
X118210038Y-95858349D01*
X118190632Y-95849170D01*
X118172219Y-95838134D01*
X118154976Y-95825346D01*
X118139070Y-95810930D01*
X118124654Y-95795024D01*
X118111866Y-95777781D01*
X118100830Y-95759368D01*
X118091651Y-95739962D01*
X118084419Y-95719750D01*
X118079203Y-95698926D01*
X118076053Y-95677691D01*
X118075000Y-95656250D01*
X118075000Y-95143750D01*
X118076053Y-95122309D01*
X118079203Y-95101074D01*
X118084419Y-95080250D01*
X118091651Y-95060038D01*
X118100830Y-95040632D01*
X118111866Y-95022219D01*
X118124654Y-95004976D01*
X118139070Y-94989070D01*
X118154976Y-94974654D01*
X118172219Y-94961866D01*
X118190632Y-94950830D01*
X118210038Y-94941651D01*
X118230250Y-94934419D01*
X118251074Y-94929203D01*
X118272309Y-94926053D01*
X118293750Y-94925000D01*
X118731250Y-94925000D01*
X118752691Y-94926053D01*
X118752691Y-94926053D01*
G37*
D14*
X118512500Y-95400000D03*
D12*
G36*
X120327691Y-94926053D02*
G01*
X120348926Y-94929203D01*
X120369750Y-94934419D01*
X120389962Y-94941651D01*
X120409368Y-94950830D01*
X120427781Y-94961866D01*
X120445024Y-94974654D01*
X120460930Y-94989070D01*
X120475346Y-95004976D01*
X120488134Y-95022219D01*
X120499170Y-95040632D01*
X120508349Y-95060038D01*
X120515581Y-95080250D01*
X120520797Y-95101074D01*
X120523947Y-95122309D01*
X120525000Y-95143750D01*
X120525000Y-95656250D01*
X120523947Y-95677691D01*
X120520797Y-95698926D01*
X120515581Y-95719750D01*
X120508349Y-95739962D01*
X120499170Y-95759368D01*
X120488134Y-95777781D01*
X120475346Y-95795024D01*
X120460930Y-95810930D01*
X120445024Y-95825346D01*
X120427781Y-95838134D01*
X120409368Y-95849170D01*
X120389962Y-95858349D01*
X120369750Y-95865581D01*
X120348926Y-95870797D01*
X120327691Y-95873947D01*
X120306250Y-95875000D01*
X119868750Y-95875000D01*
X119847309Y-95873947D01*
X119826074Y-95870797D01*
X119805250Y-95865581D01*
X119785038Y-95858349D01*
X119765632Y-95849170D01*
X119747219Y-95838134D01*
X119729976Y-95825346D01*
X119714070Y-95810930D01*
X119699654Y-95795024D01*
X119686866Y-95777781D01*
X119675830Y-95759368D01*
X119666651Y-95739962D01*
X119659419Y-95719750D01*
X119654203Y-95698926D01*
X119651053Y-95677691D01*
X119650000Y-95656250D01*
X119650000Y-95143750D01*
X119651053Y-95122309D01*
X119654203Y-95101074D01*
X119659419Y-95080250D01*
X119666651Y-95060038D01*
X119675830Y-95040632D01*
X119686866Y-95022219D01*
X119699654Y-95004976D01*
X119714070Y-94989070D01*
X119729976Y-94974654D01*
X119747219Y-94961866D01*
X119765632Y-94950830D01*
X119785038Y-94941651D01*
X119805250Y-94934419D01*
X119826074Y-94929203D01*
X119847309Y-94926053D01*
X119868750Y-94925000D01*
X120306250Y-94925000D01*
X120327691Y-94926053D01*
X120327691Y-94926053D01*
G37*
D14*
X120087500Y-95400000D03*
D12*
G36*
X131346958Y-105580710D02*
G01*
X131361276Y-105582834D01*
X131375317Y-105586351D01*
X131388946Y-105591228D01*
X131402031Y-105597417D01*
X131414447Y-105604858D01*
X131426073Y-105613481D01*
X131436798Y-105623202D01*
X131446519Y-105633927D01*
X131455142Y-105645553D01*
X131462583Y-105657969D01*
X131468772Y-105671054D01*
X131473649Y-105684683D01*
X131477166Y-105698724D01*
X131479290Y-105713042D01*
X131480000Y-105727500D01*
X131480000Y-106072500D01*
X131479290Y-106086958D01*
X131477166Y-106101276D01*
X131473649Y-106115317D01*
X131468772Y-106128946D01*
X131462583Y-106142031D01*
X131455142Y-106154447D01*
X131446519Y-106166073D01*
X131436798Y-106176798D01*
X131426073Y-106186519D01*
X131414447Y-106195142D01*
X131402031Y-106202583D01*
X131388946Y-106208772D01*
X131375317Y-106213649D01*
X131361276Y-106217166D01*
X131346958Y-106219290D01*
X131332500Y-106220000D01*
X131037500Y-106220000D01*
X131023042Y-106219290D01*
X131008724Y-106217166D01*
X130994683Y-106213649D01*
X130981054Y-106208772D01*
X130967969Y-106202583D01*
X130955553Y-106195142D01*
X130943927Y-106186519D01*
X130933202Y-106176798D01*
X130923481Y-106166073D01*
X130914858Y-106154447D01*
X130907417Y-106142031D01*
X130901228Y-106128946D01*
X130896351Y-106115317D01*
X130892834Y-106101276D01*
X130890710Y-106086958D01*
X130890000Y-106072500D01*
X130890000Y-105727500D01*
X130890710Y-105713042D01*
X130892834Y-105698724D01*
X130896351Y-105684683D01*
X130901228Y-105671054D01*
X130907417Y-105657969D01*
X130914858Y-105645553D01*
X130923481Y-105633927D01*
X130933202Y-105623202D01*
X130943927Y-105613481D01*
X130955553Y-105604858D01*
X130967969Y-105597417D01*
X130981054Y-105591228D01*
X130994683Y-105586351D01*
X131008724Y-105582834D01*
X131023042Y-105580710D01*
X131037500Y-105580000D01*
X131332500Y-105580000D01*
X131346958Y-105580710D01*
X131346958Y-105580710D01*
G37*
D13*
X131185000Y-105900000D03*
D12*
G36*
X130376958Y-105580710D02*
G01*
X130391276Y-105582834D01*
X130405317Y-105586351D01*
X130418946Y-105591228D01*
X130432031Y-105597417D01*
X130444447Y-105604858D01*
X130456073Y-105613481D01*
X130466798Y-105623202D01*
X130476519Y-105633927D01*
X130485142Y-105645553D01*
X130492583Y-105657969D01*
X130498772Y-105671054D01*
X130503649Y-105684683D01*
X130507166Y-105698724D01*
X130509290Y-105713042D01*
X130510000Y-105727500D01*
X130510000Y-106072500D01*
X130509290Y-106086958D01*
X130507166Y-106101276D01*
X130503649Y-106115317D01*
X130498772Y-106128946D01*
X130492583Y-106142031D01*
X130485142Y-106154447D01*
X130476519Y-106166073D01*
X130466798Y-106176798D01*
X130456073Y-106186519D01*
X130444447Y-106195142D01*
X130432031Y-106202583D01*
X130418946Y-106208772D01*
X130405317Y-106213649D01*
X130391276Y-106217166D01*
X130376958Y-106219290D01*
X130362500Y-106220000D01*
X130067500Y-106220000D01*
X130053042Y-106219290D01*
X130038724Y-106217166D01*
X130024683Y-106213649D01*
X130011054Y-106208772D01*
X129997969Y-106202583D01*
X129985553Y-106195142D01*
X129973927Y-106186519D01*
X129963202Y-106176798D01*
X129953481Y-106166073D01*
X129944858Y-106154447D01*
X129937417Y-106142031D01*
X129931228Y-106128946D01*
X129926351Y-106115317D01*
X129922834Y-106101276D01*
X129920710Y-106086958D01*
X129920000Y-106072500D01*
X129920000Y-105727500D01*
X129920710Y-105713042D01*
X129922834Y-105698724D01*
X129926351Y-105684683D01*
X129931228Y-105671054D01*
X129937417Y-105657969D01*
X129944858Y-105645553D01*
X129953481Y-105633927D01*
X129963202Y-105623202D01*
X129973927Y-105613481D01*
X129985553Y-105604858D01*
X129997969Y-105597417D01*
X130011054Y-105591228D01*
X130024683Y-105586351D01*
X130038724Y-105582834D01*
X130053042Y-105580710D01*
X130067500Y-105580000D01*
X130362500Y-105580000D01*
X130376958Y-105580710D01*
X130376958Y-105580710D01*
G37*
D13*
X130215000Y-105900000D03*
D12*
G36*
X128986958Y-99620710D02*
G01*
X129001276Y-99622834D01*
X129015317Y-99626351D01*
X129028946Y-99631228D01*
X129042031Y-99637417D01*
X129054447Y-99644858D01*
X129066073Y-99653481D01*
X129076798Y-99663202D01*
X129086519Y-99673927D01*
X129095142Y-99685553D01*
X129102583Y-99697969D01*
X129108772Y-99711054D01*
X129113649Y-99724683D01*
X129117166Y-99738724D01*
X129119290Y-99753042D01*
X129120000Y-99767500D01*
X129120000Y-100062500D01*
X129119290Y-100076958D01*
X129117166Y-100091276D01*
X129113649Y-100105317D01*
X129108772Y-100118946D01*
X129102583Y-100132031D01*
X129095142Y-100144447D01*
X129086519Y-100156073D01*
X129076798Y-100166798D01*
X129066073Y-100176519D01*
X129054447Y-100185142D01*
X129042031Y-100192583D01*
X129028946Y-100198772D01*
X129015317Y-100203649D01*
X129001276Y-100207166D01*
X128986958Y-100209290D01*
X128972500Y-100210000D01*
X128627500Y-100210000D01*
X128613042Y-100209290D01*
X128598724Y-100207166D01*
X128584683Y-100203649D01*
X128571054Y-100198772D01*
X128557969Y-100192583D01*
X128545553Y-100185142D01*
X128533927Y-100176519D01*
X128523202Y-100166798D01*
X128513481Y-100156073D01*
X128504858Y-100144447D01*
X128497417Y-100132031D01*
X128491228Y-100118946D01*
X128486351Y-100105317D01*
X128482834Y-100091276D01*
X128480710Y-100076958D01*
X128480000Y-100062500D01*
X128480000Y-99767500D01*
X128480710Y-99753042D01*
X128482834Y-99738724D01*
X128486351Y-99724683D01*
X128491228Y-99711054D01*
X128497417Y-99697969D01*
X128504858Y-99685553D01*
X128513481Y-99673927D01*
X128523202Y-99663202D01*
X128533927Y-99653481D01*
X128545553Y-99644858D01*
X128557969Y-99637417D01*
X128571054Y-99631228D01*
X128584683Y-99626351D01*
X128598724Y-99622834D01*
X128613042Y-99620710D01*
X128627500Y-99620000D01*
X128972500Y-99620000D01*
X128986958Y-99620710D01*
X128986958Y-99620710D01*
G37*
D13*
X128800000Y-99915000D03*
D12*
G36*
X128986958Y-100590710D02*
G01*
X129001276Y-100592834D01*
X129015317Y-100596351D01*
X129028946Y-100601228D01*
X129042031Y-100607417D01*
X129054447Y-100614858D01*
X129066073Y-100623481D01*
X129076798Y-100633202D01*
X129086519Y-100643927D01*
X129095142Y-100655553D01*
X129102583Y-100667969D01*
X129108772Y-100681054D01*
X129113649Y-100694683D01*
X129117166Y-100708724D01*
X129119290Y-100723042D01*
X129120000Y-100737500D01*
X129120000Y-101032500D01*
X129119290Y-101046958D01*
X129117166Y-101061276D01*
X129113649Y-101075317D01*
X129108772Y-101088946D01*
X129102583Y-101102031D01*
X129095142Y-101114447D01*
X129086519Y-101126073D01*
X129076798Y-101136798D01*
X129066073Y-101146519D01*
X129054447Y-101155142D01*
X129042031Y-101162583D01*
X129028946Y-101168772D01*
X129015317Y-101173649D01*
X129001276Y-101177166D01*
X128986958Y-101179290D01*
X128972500Y-101180000D01*
X128627500Y-101180000D01*
X128613042Y-101179290D01*
X128598724Y-101177166D01*
X128584683Y-101173649D01*
X128571054Y-101168772D01*
X128557969Y-101162583D01*
X128545553Y-101155142D01*
X128533927Y-101146519D01*
X128523202Y-101136798D01*
X128513481Y-101126073D01*
X128504858Y-101114447D01*
X128497417Y-101102031D01*
X128491228Y-101088946D01*
X128486351Y-101075317D01*
X128482834Y-101061276D01*
X128480710Y-101046958D01*
X128480000Y-101032500D01*
X128480000Y-100737500D01*
X128480710Y-100723042D01*
X128482834Y-100708724D01*
X128486351Y-100694683D01*
X128491228Y-100681054D01*
X128497417Y-100667969D01*
X128504858Y-100655553D01*
X128513481Y-100643927D01*
X128523202Y-100633202D01*
X128533927Y-100623481D01*
X128545553Y-100614858D01*
X128557969Y-100607417D01*
X128571054Y-100601228D01*
X128584683Y-100596351D01*
X128598724Y-100592834D01*
X128613042Y-100590710D01*
X128627500Y-100590000D01*
X128972500Y-100590000D01*
X128986958Y-100590710D01*
X128986958Y-100590710D01*
G37*
D13*
X128800000Y-100885000D03*
D12*
G36*
X119376958Y-102880710D02*
G01*
X119391276Y-102882834D01*
X119405317Y-102886351D01*
X119418946Y-102891228D01*
X119432031Y-102897417D01*
X119444447Y-102904858D01*
X119456073Y-102913481D01*
X119466798Y-102923202D01*
X119476519Y-102933927D01*
X119485142Y-102945553D01*
X119492583Y-102957969D01*
X119498772Y-102971054D01*
X119503649Y-102984683D01*
X119507166Y-102998724D01*
X119509290Y-103013042D01*
X119510000Y-103027500D01*
X119510000Y-103372500D01*
X119509290Y-103386958D01*
X119507166Y-103401276D01*
X119503649Y-103415317D01*
X119498772Y-103428946D01*
X119492583Y-103442031D01*
X119485142Y-103454447D01*
X119476519Y-103466073D01*
X119466798Y-103476798D01*
X119456073Y-103486519D01*
X119444447Y-103495142D01*
X119432031Y-103502583D01*
X119418946Y-103508772D01*
X119405317Y-103513649D01*
X119391276Y-103517166D01*
X119376958Y-103519290D01*
X119362500Y-103520000D01*
X119067500Y-103520000D01*
X119053042Y-103519290D01*
X119038724Y-103517166D01*
X119024683Y-103513649D01*
X119011054Y-103508772D01*
X118997969Y-103502583D01*
X118985553Y-103495142D01*
X118973927Y-103486519D01*
X118963202Y-103476798D01*
X118953481Y-103466073D01*
X118944858Y-103454447D01*
X118937417Y-103442031D01*
X118931228Y-103428946D01*
X118926351Y-103415317D01*
X118922834Y-103401276D01*
X118920710Y-103386958D01*
X118920000Y-103372500D01*
X118920000Y-103027500D01*
X118920710Y-103013042D01*
X118922834Y-102998724D01*
X118926351Y-102984683D01*
X118931228Y-102971054D01*
X118937417Y-102957969D01*
X118944858Y-102945553D01*
X118953481Y-102933927D01*
X118963202Y-102923202D01*
X118973927Y-102913481D01*
X118985553Y-102904858D01*
X118997969Y-102897417D01*
X119011054Y-102891228D01*
X119024683Y-102886351D01*
X119038724Y-102882834D01*
X119053042Y-102880710D01*
X119067500Y-102880000D01*
X119362500Y-102880000D01*
X119376958Y-102880710D01*
X119376958Y-102880710D01*
G37*
D13*
X119215000Y-103200000D03*
D12*
G36*
X120346958Y-102880710D02*
G01*
X120361276Y-102882834D01*
X120375317Y-102886351D01*
X120388946Y-102891228D01*
X120402031Y-102897417D01*
X120414447Y-102904858D01*
X120426073Y-102913481D01*
X120436798Y-102923202D01*
X120446519Y-102933927D01*
X120455142Y-102945553D01*
X120462583Y-102957969D01*
X120468772Y-102971054D01*
X120473649Y-102984683D01*
X120477166Y-102998724D01*
X120479290Y-103013042D01*
X120480000Y-103027500D01*
X120480000Y-103372500D01*
X120479290Y-103386958D01*
X120477166Y-103401276D01*
X120473649Y-103415317D01*
X120468772Y-103428946D01*
X120462583Y-103442031D01*
X120455142Y-103454447D01*
X120446519Y-103466073D01*
X120436798Y-103476798D01*
X120426073Y-103486519D01*
X120414447Y-103495142D01*
X120402031Y-103502583D01*
X120388946Y-103508772D01*
X120375317Y-103513649D01*
X120361276Y-103517166D01*
X120346958Y-103519290D01*
X120332500Y-103520000D01*
X120037500Y-103520000D01*
X120023042Y-103519290D01*
X120008724Y-103517166D01*
X119994683Y-103513649D01*
X119981054Y-103508772D01*
X119967969Y-103502583D01*
X119955553Y-103495142D01*
X119943927Y-103486519D01*
X119933202Y-103476798D01*
X119923481Y-103466073D01*
X119914858Y-103454447D01*
X119907417Y-103442031D01*
X119901228Y-103428946D01*
X119896351Y-103415317D01*
X119892834Y-103401276D01*
X119890710Y-103386958D01*
X119890000Y-103372500D01*
X119890000Y-103027500D01*
X119890710Y-103013042D01*
X119892834Y-102998724D01*
X119896351Y-102984683D01*
X119901228Y-102971054D01*
X119907417Y-102957969D01*
X119914858Y-102945553D01*
X119923481Y-102933927D01*
X119933202Y-102923202D01*
X119943927Y-102913481D01*
X119955553Y-102904858D01*
X119967969Y-102897417D01*
X119981054Y-102891228D01*
X119994683Y-102886351D01*
X120008724Y-102882834D01*
X120023042Y-102880710D01*
X120037500Y-102880000D01*
X120332500Y-102880000D01*
X120346958Y-102880710D01*
X120346958Y-102880710D01*
G37*
D13*
X120185000Y-103200000D03*
D12*
G36*
X119376958Y-104180710D02*
G01*
X119391276Y-104182834D01*
X119405317Y-104186351D01*
X119418946Y-104191228D01*
X119432031Y-104197417D01*
X119444447Y-104204858D01*
X119456073Y-104213481D01*
X119466798Y-104223202D01*
X119476519Y-104233927D01*
X119485142Y-104245553D01*
X119492583Y-104257969D01*
X119498772Y-104271054D01*
X119503649Y-104284683D01*
X119507166Y-104298724D01*
X119509290Y-104313042D01*
X119510000Y-104327500D01*
X119510000Y-104672500D01*
X119509290Y-104686958D01*
X119507166Y-104701276D01*
X119503649Y-104715317D01*
X119498772Y-104728946D01*
X119492583Y-104742031D01*
X119485142Y-104754447D01*
X119476519Y-104766073D01*
X119466798Y-104776798D01*
X119456073Y-104786519D01*
X119444447Y-104795142D01*
X119432031Y-104802583D01*
X119418946Y-104808772D01*
X119405317Y-104813649D01*
X119391276Y-104817166D01*
X119376958Y-104819290D01*
X119362500Y-104820000D01*
X119067500Y-104820000D01*
X119053042Y-104819290D01*
X119038724Y-104817166D01*
X119024683Y-104813649D01*
X119011054Y-104808772D01*
X118997969Y-104802583D01*
X118985553Y-104795142D01*
X118973927Y-104786519D01*
X118963202Y-104776798D01*
X118953481Y-104766073D01*
X118944858Y-104754447D01*
X118937417Y-104742031D01*
X118931228Y-104728946D01*
X118926351Y-104715317D01*
X118922834Y-104701276D01*
X118920710Y-104686958D01*
X118920000Y-104672500D01*
X118920000Y-104327500D01*
X118920710Y-104313042D01*
X118922834Y-104298724D01*
X118926351Y-104284683D01*
X118931228Y-104271054D01*
X118937417Y-104257969D01*
X118944858Y-104245553D01*
X118953481Y-104233927D01*
X118963202Y-104223202D01*
X118973927Y-104213481D01*
X118985553Y-104204858D01*
X118997969Y-104197417D01*
X119011054Y-104191228D01*
X119024683Y-104186351D01*
X119038724Y-104182834D01*
X119053042Y-104180710D01*
X119067500Y-104180000D01*
X119362500Y-104180000D01*
X119376958Y-104180710D01*
X119376958Y-104180710D01*
G37*
D13*
X119215000Y-104500000D03*
D12*
G36*
X120346958Y-104180710D02*
G01*
X120361276Y-104182834D01*
X120375317Y-104186351D01*
X120388946Y-104191228D01*
X120402031Y-104197417D01*
X120414447Y-104204858D01*
X120426073Y-104213481D01*
X120436798Y-104223202D01*
X120446519Y-104233927D01*
X120455142Y-104245553D01*
X120462583Y-104257969D01*
X120468772Y-104271054D01*
X120473649Y-104284683D01*
X120477166Y-104298724D01*
X120479290Y-104313042D01*
X120480000Y-104327500D01*
X120480000Y-104672500D01*
X120479290Y-104686958D01*
X120477166Y-104701276D01*
X120473649Y-104715317D01*
X120468772Y-104728946D01*
X120462583Y-104742031D01*
X120455142Y-104754447D01*
X120446519Y-104766073D01*
X120436798Y-104776798D01*
X120426073Y-104786519D01*
X120414447Y-104795142D01*
X120402031Y-104802583D01*
X120388946Y-104808772D01*
X120375317Y-104813649D01*
X120361276Y-104817166D01*
X120346958Y-104819290D01*
X120332500Y-104820000D01*
X120037500Y-104820000D01*
X120023042Y-104819290D01*
X120008724Y-104817166D01*
X119994683Y-104813649D01*
X119981054Y-104808772D01*
X119967969Y-104802583D01*
X119955553Y-104795142D01*
X119943927Y-104786519D01*
X119933202Y-104776798D01*
X119923481Y-104766073D01*
X119914858Y-104754447D01*
X119907417Y-104742031D01*
X119901228Y-104728946D01*
X119896351Y-104715317D01*
X119892834Y-104701276D01*
X119890710Y-104686958D01*
X119890000Y-104672500D01*
X119890000Y-104327500D01*
X119890710Y-104313042D01*
X119892834Y-104298724D01*
X119896351Y-104284683D01*
X119901228Y-104271054D01*
X119907417Y-104257969D01*
X119914858Y-104245553D01*
X119923481Y-104233927D01*
X119933202Y-104223202D01*
X119943927Y-104213481D01*
X119955553Y-104204858D01*
X119967969Y-104197417D01*
X119981054Y-104191228D01*
X119994683Y-104186351D01*
X120008724Y-104182834D01*
X120023042Y-104180710D01*
X120037500Y-104180000D01*
X120332500Y-104180000D01*
X120346958Y-104180710D01*
X120346958Y-104180710D01*
G37*
D13*
X120185000Y-104500000D03*
M02*
