G04 #@! TF.GenerationSoftware,KiCad,Pcbnew,(5.1.2)-1*
G04 #@! TF.CreationDate,2026-08-07T14:03:50+09:00*
G04 #@! TF.ProjectId,um,756d2e6b-6963-4616-945f-706362585858,v1.0*
G04 #@! TF.SameCoordinates,Original*
G04 #@! TF.FileFunction,Legend,Bot*
G04 #@! TF.FilePolarity,Positive*
%FSLAX46Y46*%
G04 Gerber Fmt 4.6, Leading zero omitted, Abs format (unit mm)*
G04 Created by KiCad (PCBNEW (5.1.2)-1) date 2026-08-07 14:03:50*
%MOMM*%
%LPD*%
G04 APERTURE LIST*
%ADD10C,0.120000*%
%ADD11C,0.150000*%
%ADD12C,0.100000*%
G04 APERTURE END LIST*
D10*
X110941904Y-96128571D02*
X110141904Y-96128571D01*
X110941904Y-96585714D01*
X110141904Y-96585714D01*
X110941904Y-97309523D02*
X110522857Y-97309523D01*
X110446666Y-97271428D01*
X110408571Y-97195238D01*
X110408571Y-97042857D01*
X110446666Y-96966666D01*
X110903809Y-97309523D02*
X110941904Y-97233333D01*
X110941904Y-97042857D01*
X110903809Y-96966666D01*
X110827619Y-96928571D01*
X110751428Y-96928571D01*
X110675238Y-96966666D01*
X110637142Y-97042857D01*
X110637142Y-97233333D01*
X110599047Y-97309523D01*
X110408571Y-97690476D02*
X110941904Y-97690476D01*
X110484761Y-97690476D02*
X110446666Y-97728571D01*
X110408571Y-97804761D01*
X110408571Y-97919047D01*
X110446666Y-97995238D01*
X110522857Y-98033333D01*
X110941904Y-98033333D01*
X110941904Y-98528571D02*
X110903809Y-98452380D01*
X110865714Y-98414285D01*
X110789523Y-98376190D01*
X110560952Y-98376190D01*
X110484761Y-98414285D01*
X110446666Y-98452380D01*
X110408571Y-98528571D01*
X110408571Y-98642857D01*
X110446666Y-98719047D01*
X110484761Y-98757142D01*
X110560952Y-98795238D01*
X110789523Y-98795238D01*
X110865714Y-98757142D01*
X110903809Y-98719047D01*
X110941904Y-98642857D01*
X110941904Y-98528571D01*
X110141904Y-99747619D02*
X110789523Y-99747619D01*
X110865714Y-99785714D01*
X110903809Y-99823809D01*
X110941904Y-99900000D01*
X110941904Y-100052380D01*
X110903809Y-100128571D01*
X110865714Y-100166666D01*
X110789523Y-100204761D01*
X110141904Y-100204761D01*
X110903809Y-100547619D02*
X110941904Y-100661904D01*
X110941904Y-100852380D01*
X110903809Y-100928571D01*
X110865714Y-100966666D01*
X110789523Y-101004761D01*
X110713333Y-101004761D01*
X110637142Y-100966666D01*
X110599047Y-100928571D01*
X110560952Y-100852380D01*
X110522857Y-100700000D01*
X110484761Y-100623809D01*
X110446666Y-100585714D01*
X110370476Y-100547619D01*
X110294285Y-100547619D01*
X110218095Y-100585714D01*
X110180000Y-100623809D01*
X110141904Y-100700000D01*
X110141904Y-100890476D01*
X110180000Y-101004761D01*
X110522857Y-101614285D02*
X110560952Y-101728571D01*
X110599047Y-101766666D01*
X110675238Y-101804761D01*
X110789523Y-101804761D01*
X110865714Y-101766666D01*
X110903809Y-101728571D01*
X110941904Y-101652380D01*
X110941904Y-101347619D01*
X110141904Y-101347619D01*
X110141904Y-101614285D01*
X110180000Y-101690476D01*
X110218095Y-101728571D01*
X110294285Y-101766666D01*
X110370476Y-101766666D01*
X110446666Y-101728571D01*
X110484761Y-101690476D01*
X110522857Y-101614285D01*
X110522857Y-101347619D01*
X110941904Y-102757142D02*
X110141904Y-102757142D01*
X110713333Y-103023809D01*
X110141904Y-103290476D01*
X110941904Y-103290476D01*
X110941904Y-103785714D02*
X110903809Y-103709523D01*
X110865714Y-103671428D01*
X110789523Y-103633333D01*
X110560952Y-103633333D01*
X110484761Y-103671428D01*
X110446666Y-103709523D01*
X110408571Y-103785714D01*
X110408571Y-103900000D01*
X110446666Y-103976190D01*
X110484761Y-104014285D01*
X110560952Y-104052380D01*
X110789523Y-104052380D01*
X110865714Y-104014285D01*
X110903809Y-103976190D01*
X110941904Y-103900000D01*
X110941904Y-103785714D01*
X110408571Y-104738095D02*
X110941904Y-104738095D01*
X110408571Y-104395238D02*
X110827619Y-104395238D01*
X110903809Y-104433333D01*
X110941904Y-104509523D01*
X110941904Y-104623809D01*
X110903809Y-104700000D01*
X110865714Y-104738095D01*
X110903809Y-105080952D02*
X110941904Y-105157142D01*
X110941904Y-105309523D01*
X110903809Y-105385714D01*
X110827619Y-105423809D01*
X110789523Y-105423809D01*
X110713333Y-105385714D01*
X110675238Y-105309523D01*
X110675238Y-105195238D01*
X110637142Y-105119047D01*
X110560952Y-105080952D01*
X110522857Y-105080952D01*
X110446666Y-105119047D01*
X110408571Y-105195238D01*
X110408571Y-105309523D01*
X110446666Y-105385714D01*
X110903809Y-106071428D02*
X110941904Y-105995238D01*
X110941904Y-105842857D01*
X110903809Y-105766666D01*
X110827619Y-105728571D01*
X110522857Y-105728571D01*
X110446666Y-105766666D01*
X110408571Y-105842857D01*
X110408571Y-105995238D01*
X110446666Y-106071428D01*
X110522857Y-106109523D01*
X110599047Y-106109523D01*
X110675238Y-105728571D01*
X111728571Y-98128571D02*
X112261904Y-98319047D01*
X111728571Y-98509523D01*
X112261904Y-99233333D02*
X112261904Y-98776190D01*
X112261904Y-99004761D02*
X111461904Y-99004761D01*
X111576190Y-98928571D01*
X111652380Y-98852380D01*
X111690476Y-98776190D01*
X112185714Y-99576190D02*
X112223809Y-99614285D01*
X112261904Y-99576190D01*
X112223809Y-99538095D01*
X112185714Y-99576190D01*
X112261904Y-99576190D01*
X112261904Y-100376190D02*
X112261904Y-99919047D01*
X112261904Y-100147619D02*
X111461904Y-100147619D01*
X111576190Y-100071428D01*
X111652380Y-99995238D01*
X111690476Y-99919047D01*
X111538095Y-101290476D02*
X111500000Y-101328571D01*
X111461904Y-101404761D01*
X111461904Y-101595238D01*
X111500000Y-101671428D01*
X111538095Y-101709523D01*
X111614285Y-101747619D01*
X111690476Y-101747619D01*
X111804761Y-101709523D01*
X112261904Y-101252380D01*
X112261904Y-101747619D01*
X111461904Y-102433333D02*
X111461904Y-102280952D01*
X111500000Y-102204761D01*
X111538095Y-102166666D01*
X111652380Y-102090476D01*
X111804761Y-102052380D01*
X112109523Y-102052380D01*
X112185714Y-102090476D01*
X112223809Y-102128571D01*
X112261904Y-102204761D01*
X112261904Y-102357142D01*
X112223809Y-102433333D01*
X112185714Y-102471428D01*
X112109523Y-102509523D01*
X111919047Y-102509523D01*
X111842857Y-102471428D01*
X111804761Y-102433333D01*
X111766666Y-102357142D01*
X111766666Y-102204761D01*
X111804761Y-102128571D01*
X111842857Y-102090476D01*
X111919047Y-102052380D01*
X111461904Y-103004761D02*
X111461904Y-103080952D01*
X111500000Y-103157142D01*
X111538095Y-103195238D01*
X111614285Y-103233333D01*
X111766666Y-103271428D01*
X111957142Y-103271428D01*
X112109523Y-103233333D01*
X112185714Y-103195238D01*
X112223809Y-103157142D01*
X112261904Y-103080952D01*
X112261904Y-103004761D01*
X112223809Y-102928571D01*
X112185714Y-102890476D01*
X112109523Y-102852380D01*
X111957142Y-102814285D01*
X111766666Y-102814285D01*
X111614285Y-102852380D01*
X111538095Y-102890476D01*
X111500000Y-102928571D01*
X111461904Y-103004761D01*
X111804761Y-103728571D02*
X111766666Y-103652380D01*
X111728571Y-103614285D01*
X111652380Y-103576190D01*
X111614285Y-103576190D01*
X111538095Y-103614285D01*
X111500000Y-103652380D01*
X111461904Y-103728571D01*
X111461904Y-103880952D01*
X111500000Y-103957142D01*
X111538095Y-103995238D01*
X111614285Y-104033333D01*
X111652380Y-104033333D01*
X111728571Y-103995238D01*
X111766666Y-103957142D01*
X111804761Y-103880952D01*
X111804761Y-103728571D01*
X111842857Y-103652380D01*
X111880952Y-103614285D01*
X111957142Y-103576190D01*
X112109523Y-103576190D01*
X112185714Y-103614285D01*
X112223809Y-103652380D01*
X112261904Y-103728571D01*
X112261904Y-103880952D01*
X112223809Y-103957142D01*
X112185714Y-103995238D01*
X112109523Y-104033333D01*
X111957142Y-104033333D01*
X111880952Y-103995238D01*
X111842857Y-103957142D01*
X111804761Y-103880952D01*
X113505714Y-99157142D02*
X113543809Y-99119047D01*
X113581904Y-99004761D01*
X113581904Y-98928571D01*
X113543809Y-98814285D01*
X113467619Y-98738095D01*
X113391428Y-98700000D01*
X113239047Y-98661904D01*
X113124761Y-98661904D01*
X112972380Y-98700000D01*
X112896190Y-98738095D01*
X112820000Y-98814285D01*
X112781904Y-98928571D01*
X112781904Y-99004761D01*
X112820000Y-99119047D01*
X112858095Y-99157142D01*
X113581904Y-99500000D02*
X113048571Y-99500000D01*
X113200952Y-99500000D02*
X113124761Y-99538095D01*
X113086666Y-99576190D01*
X113048571Y-99652380D01*
X113048571Y-99728571D01*
X113543809Y-100300000D02*
X113581904Y-100223809D01*
X113581904Y-100071428D01*
X113543809Y-99995238D01*
X113467619Y-99957142D01*
X113162857Y-99957142D01*
X113086666Y-99995238D01*
X113048571Y-100071428D01*
X113048571Y-100223809D01*
X113086666Y-100300000D01*
X113162857Y-100338095D01*
X113239047Y-100338095D01*
X113315238Y-99957142D01*
X113543809Y-100642857D02*
X113581904Y-100719047D01*
X113581904Y-100871428D01*
X113543809Y-100947619D01*
X113467619Y-100985714D01*
X113429523Y-100985714D01*
X113353333Y-100947619D01*
X113315238Y-100871428D01*
X113315238Y-100757142D01*
X113277142Y-100680952D01*
X113200952Y-100642857D01*
X113162857Y-100642857D01*
X113086666Y-100680952D01*
X113048571Y-100757142D01*
X113048571Y-100871428D01*
X113086666Y-100947619D01*
X113543809Y-101671428D02*
X113581904Y-101595238D01*
X113581904Y-101442857D01*
X113543809Y-101366666D01*
X113505714Y-101328571D01*
X113429523Y-101290476D01*
X113200952Y-101290476D01*
X113124761Y-101328571D01*
X113086666Y-101366666D01*
X113048571Y-101442857D01*
X113048571Y-101595238D01*
X113086666Y-101671428D01*
X113543809Y-102319047D02*
X113581904Y-102242857D01*
X113581904Y-102090476D01*
X113543809Y-102014285D01*
X113467619Y-101976190D01*
X113162857Y-101976190D01*
X113086666Y-102014285D01*
X113048571Y-102090476D01*
X113048571Y-102242857D01*
X113086666Y-102319047D01*
X113162857Y-102357142D01*
X113239047Y-102357142D01*
X113315238Y-101976190D01*
X113048571Y-102700000D02*
X113581904Y-102700000D01*
X113124761Y-102700000D02*
X113086666Y-102738095D01*
X113048571Y-102814285D01*
X113048571Y-102928571D01*
X113086666Y-103004761D01*
X113162857Y-103042857D01*
X113581904Y-103042857D01*
X113048571Y-103309523D02*
X113048571Y-103614285D01*
X112781904Y-103423809D02*
X113467619Y-103423809D01*
X113543809Y-103461904D01*
X113581904Y-103538095D01*
X113581904Y-103614285D01*
X132304761Y-105857142D02*
X131695238Y-105857142D01*
X132000000Y-106161904D02*
X132000000Y-105552380D01*
D11*
X122175000Y-94775000D02*
X126825000Y-94775000D01*
X121100000Y-100300000D02*
X126800000Y-100300000D01*
X122175000Y-94775000D02*
X122175000Y-94800000D01*
X126825000Y-94775000D02*
X126825000Y-94800000D01*
X126800000Y-100300000D02*
X126800000Y-100200000D01*
X126675000Y-102950000D02*
X127900000Y-102950000D01*
X126675000Y-106075000D02*
X123325000Y-106075000D01*
X126675000Y-102725000D02*
X123325000Y-102725000D01*
X126675000Y-106075000D02*
X126675000Y-105775000D01*
X123325000Y-106075000D02*
X123325000Y-105775000D01*
X123325000Y-102725000D02*
X123325000Y-103025000D01*
X126675000Y-102725000D02*
X126675000Y-102950000D01*
D10*
X130000000Y-103000000D02*
G75*
G03X130000000Y-103000000I-700000J0D01*
G01*
X119137221Y-95910000D02*
X119462779Y-95910000D01*
X119137221Y-94890000D02*
X119462779Y-94890000D01*
D12*
X129660000Y-105900000D02*
G75*
G03X129660000Y-105900000I-50000J0D01*
G01*
X124207142Y-100471428D02*
X124207142Y-100957142D01*
X124178571Y-101014285D01*
X124150000Y-101042857D01*
X124092857Y-101071428D01*
X123978571Y-101071428D01*
X123921428Y-101042857D01*
X123892857Y-101014285D01*
X123864285Y-100957142D01*
X123864285Y-100471428D01*
X123607142Y-100528571D02*
X123578571Y-100500000D01*
X123521428Y-100471428D01*
X123378571Y-100471428D01*
X123321428Y-100500000D01*
X123292857Y-100528571D01*
X123264285Y-100585714D01*
X123264285Y-100642857D01*
X123292857Y-100728571D01*
X123635714Y-101071428D01*
X123264285Y-101071428D01*
X127807142Y-102121428D02*
X127807142Y-102607142D01*
X127778571Y-102664285D01*
X127750000Y-102692857D01*
X127692857Y-102721428D01*
X127578571Y-102721428D01*
X127521428Y-102692857D01*
X127492857Y-102664285D01*
X127464285Y-102607142D01*
X127464285Y-102121428D01*
X126864285Y-102721428D02*
X127207142Y-102721428D01*
X127035714Y-102721428D02*
X127035714Y-102121428D01*
X127092857Y-102207142D01*
X127150000Y-102264285D01*
X127207142Y-102292857D01*
X130957142Y-102671428D02*
X130614285Y-102671428D01*
X130785714Y-103271428D02*
X130785714Y-102671428D01*
X130100000Y-103271428D02*
X130442857Y-103271428D01*
X130271428Y-103271428D02*
X130271428Y-102671428D01*
X130328571Y-102757142D01*
X130385714Y-102814285D01*
X130442857Y-102842857D01*
X131921428Y-96114285D02*
X131635714Y-95914285D01*
X131921428Y-95771428D02*
X131321428Y-95771428D01*
X131321428Y-96000000D01*
X131350000Y-96057142D01*
X131378571Y-96085714D01*
X131435714Y-96114285D01*
X131521428Y-96114285D01*
X131578571Y-96085714D01*
X131607142Y-96057142D01*
X131635714Y-96000000D01*
X131635714Y-95771428D01*
X131921428Y-96685714D02*
X131921428Y-96342857D01*
X131921428Y-96514285D02*
X131321428Y-96514285D01*
X131407142Y-96457142D01*
X131464285Y-96400000D01*
X131492857Y-96342857D01*
X131321428Y-97057142D02*
X131321428Y-97114285D01*
X131350000Y-97171428D01*
X131378571Y-97200000D01*
X131435714Y-97228571D01*
X131550000Y-97257142D01*
X131692857Y-97257142D01*
X131807142Y-97228571D01*
X131864285Y-97200000D01*
X131892857Y-97171428D01*
X131921428Y-97114285D01*
X131921428Y-97057142D01*
X131892857Y-97000000D01*
X131864285Y-96971428D01*
X131807142Y-96942857D01*
X131692857Y-96914285D01*
X131550000Y-96914285D01*
X131435714Y-96942857D01*
X131378571Y-96971428D01*
X131350000Y-97000000D01*
X131321428Y-97057142D01*
X129000000Y-95621428D02*
X129200000Y-95335714D01*
X129342857Y-95621428D02*
X129342857Y-95021428D01*
X129114285Y-95021428D01*
X129057142Y-95050000D01*
X129028571Y-95078571D01*
X129000000Y-95135714D01*
X129000000Y-95221428D01*
X129028571Y-95278571D01*
X129057142Y-95307142D01*
X129114285Y-95335714D01*
X129342857Y-95335714D01*
X128714285Y-95621428D02*
X128600000Y-95621428D01*
X128542857Y-95592857D01*
X128514285Y-95564285D01*
X128457142Y-95478571D01*
X128428571Y-95364285D01*
X128428571Y-95135714D01*
X128457142Y-95078571D01*
X128485714Y-95050000D01*
X128542857Y-95021428D01*
X128657142Y-95021428D01*
X128714285Y-95050000D01*
X128742857Y-95078571D01*
X128771428Y-95135714D01*
X128771428Y-95278571D01*
X128742857Y-95335714D01*
X128714285Y-95364285D01*
X128657142Y-95392857D01*
X128542857Y-95392857D01*
X128485714Y-95364285D01*
X128457142Y-95335714D01*
X128428571Y-95278571D01*
X129000000Y-98171428D02*
X129200000Y-97885714D01*
X129342857Y-98171428D02*
X129342857Y-97571428D01*
X129114285Y-97571428D01*
X129057142Y-97600000D01*
X129028571Y-97628571D01*
X129000000Y-97685714D01*
X129000000Y-97771428D01*
X129028571Y-97828571D01*
X129057142Y-97857142D01*
X129114285Y-97885714D01*
X129342857Y-97885714D01*
X128657142Y-97828571D02*
X128714285Y-97800000D01*
X128742857Y-97771428D01*
X128771428Y-97714285D01*
X128771428Y-97685714D01*
X128742857Y-97628571D01*
X128714285Y-97600000D01*
X128657142Y-97571428D01*
X128542857Y-97571428D01*
X128485714Y-97600000D01*
X128457142Y-97628571D01*
X128428571Y-97685714D01*
X128428571Y-97714285D01*
X128457142Y-97771428D01*
X128485714Y-97800000D01*
X128542857Y-97828571D01*
X128657142Y-97828571D01*
X128714285Y-97857142D01*
X128742857Y-97885714D01*
X128771428Y-97942857D01*
X128771428Y-98057142D01*
X128742857Y-98114285D01*
X128714285Y-98142857D01*
X128657142Y-98171428D01*
X128542857Y-98171428D01*
X128485714Y-98142857D01*
X128457142Y-98114285D01*
X128428571Y-98057142D01*
X128428571Y-97942857D01*
X128457142Y-97885714D01*
X128485714Y-97857142D01*
X128542857Y-97828571D01*
X118250000Y-97421428D02*
X118450000Y-97135714D01*
X118592857Y-97421428D02*
X118592857Y-96821428D01*
X118364285Y-96821428D01*
X118307142Y-96850000D01*
X118278571Y-96878571D01*
X118250000Y-96935714D01*
X118250000Y-97021428D01*
X118278571Y-97078571D01*
X118307142Y-97107142D01*
X118364285Y-97135714D01*
X118592857Y-97135714D01*
X118050000Y-96821428D02*
X117650000Y-96821428D01*
X117907142Y-97421428D01*
X118250000Y-98621428D02*
X118450000Y-98335714D01*
X118592857Y-98621428D02*
X118592857Y-98021428D01*
X118364285Y-98021428D01*
X118307142Y-98050000D01*
X118278571Y-98078571D01*
X118250000Y-98135714D01*
X118250000Y-98221428D01*
X118278571Y-98278571D01*
X118307142Y-98307142D01*
X118364285Y-98335714D01*
X118592857Y-98335714D01*
X117735714Y-98021428D02*
X117850000Y-98021428D01*
X117907142Y-98050000D01*
X117935714Y-98078571D01*
X117992857Y-98164285D01*
X118021428Y-98278571D01*
X118021428Y-98507142D01*
X117992857Y-98564285D01*
X117964285Y-98592857D01*
X117907142Y-98621428D01*
X117792857Y-98621428D01*
X117735714Y-98592857D01*
X117707142Y-98564285D01*
X117678571Y-98507142D01*
X117678571Y-98364285D01*
X117707142Y-98307142D01*
X117735714Y-98278571D01*
X117792857Y-98250000D01*
X117907142Y-98250000D01*
X117964285Y-98278571D01*
X117992857Y-98307142D01*
X118021428Y-98364285D01*
X118250000Y-99921428D02*
X118450000Y-99635714D01*
X118592857Y-99921428D02*
X118592857Y-99321428D01*
X118364285Y-99321428D01*
X118307142Y-99350000D01*
X118278571Y-99378571D01*
X118250000Y-99435714D01*
X118250000Y-99521428D01*
X118278571Y-99578571D01*
X118307142Y-99607142D01*
X118364285Y-99635714D01*
X118592857Y-99635714D01*
X117707142Y-99321428D02*
X117992857Y-99321428D01*
X118021428Y-99607142D01*
X117992857Y-99578571D01*
X117935714Y-99550000D01*
X117792857Y-99550000D01*
X117735714Y-99578571D01*
X117707142Y-99607142D01*
X117678571Y-99664285D01*
X117678571Y-99807142D01*
X117707142Y-99864285D01*
X117735714Y-99892857D01*
X117792857Y-99921428D01*
X117935714Y-99921428D01*
X117992857Y-99892857D01*
X118021428Y-99864285D01*
X129000000Y-99171428D02*
X129200000Y-98885714D01*
X129342857Y-99171428D02*
X129342857Y-98571428D01*
X129114285Y-98571428D01*
X129057142Y-98600000D01*
X129028571Y-98628571D01*
X129000000Y-98685714D01*
X129000000Y-98771428D01*
X129028571Y-98828571D01*
X129057142Y-98857142D01*
X129114285Y-98885714D01*
X129342857Y-98885714D01*
X128485714Y-98771428D02*
X128485714Y-99171428D01*
X128628571Y-98542857D02*
X128771428Y-98971428D01*
X128400000Y-98971428D01*
X128400000Y-107171428D02*
X128600000Y-106885714D01*
X128742857Y-107171428D02*
X128742857Y-106571428D01*
X128514285Y-106571428D01*
X128457142Y-106600000D01*
X128428571Y-106628571D01*
X128400000Y-106685714D01*
X128400000Y-106771428D01*
X128428571Y-106828571D01*
X128457142Y-106857142D01*
X128514285Y-106885714D01*
X128742857Y-106885714D01*
X128200000Y-106571428D02*
X127828571Y-106571428D01*
X128028571Y-106800000D01*
X127942857Y-106800000D01*
X127885714Y-106828571D01*
X127857142Y-106857142D01*
X127828571Y-106914285D01*
X127828571Y-107057142D01*
X127857142Y-107114285D01*
X127885714Y-107142857D01*
X127942857Y-107171428D01*
X128114285Y-107171428D01*
X128171428Y-107142857D01*
X128200000Y-107114285D01*
X122350000Y-102321428D02*
X122550000Y-102035714D01*
X122692857Y-102321428D02*
X122692857Y-101721428D01*
X122464285Y-101721428D01*
X122407142Y-101750000D01*
X122378571Y-101778571D01*
X122350000Y-101835714D01*
X122350000Y-101921428D01*
X122378571Y-101978571D01*
X122407142Y-102007142D01*
X122464285Y-102035714D01*
X122692857Y-102035714D01*
X122121428Y-101778571D02*
X122092857Y-101750000D01*
X122035714Y-101721428D01*
X121892857Y-101721428D01*
X121835714Y-101750000D01*
X121807142Y-101778571D01*
X121778571Y-101835714D01*
X121778571Y-101892857D01*
X121807142Y-101978571D01*
X122150000Y-102321428D01*
X121778571Y-102321428D01*
X129300000Y-104871428D02*
X129500000Y-104585714D01*
X129642857Y-104871428D02*
X129642857Y-104271428D01*
X129414285Y-104271428D01*
X129357142Y-104300000D01*
X129328571Y-104328571D01*
X129300000Y-104385714D01*
X129300000Y-104471428D01*
X129328571Y-104528571D01*
X129357142Y-104557142D01*
X129414285Y-104585714D01*
X129642857Y-104585714D01*
X128728571Y-104871428D02*
X129071428Y-104871428D01*
X128900000Y-104871428D02*
X128900000Y-104271428D01*
X128957142Y-104357142D01*
X129014285Y-104414285D01*
X129071428Y-104442857D01*
X117600000Y-95407142D02*
X117800000Y-95407142D01*
X117800000Y-95721428D02*
X117800000Y-95121428D01*
X117514285Y-95121428D01*
X116971428Y-95721428D02*
X117314285Y-95721428D01*
X117142857Y-95721428D02*
X117142857Y-95121428D01*
X117200000Y-95207142D01*
X117257142Y-95264285D01*
X117314285Y-95292857D01*
X129592857Y-106171428D02*
X129592857Y-105571428D01*
X129450000Y-105571428D01*
X129364285Y-105600000D01*
X129307142Y-105657142D01*
X129278571Y-105714285D01*
X129250000Y-105828571D01*
X129250000Y-105914285D01*
X129278571Y-106028571D01*
X129307142Y-106085714D01*
X129364285Y-106142857D01*
X129450000Y-106171428D01*
X129592857Y-106171428D01*
X128678571Y-106171428D02*
X129021428Y-106171428D01*
X128850000Y-106171428D02*
X128850000Y-105571428D01*
X128907142Y-105657142D01*
X128964285Y-105714285D01*
X129021428Y-105742857D01*
X129814285Y-100300000D02*
X129842857Y-100271428D01*
X129871428Y-100185714D01*
X129871428Y-100128571D01*
X129842857Y-100042857D01*
X129785714Y-99985714D01*
X129728571Y-99957142D01*
X129614285Y-99928571D01*
X129528571Y-99928571D01*
X129414285Y-99957142D01*
X129357142Y-99985714D01*
X129300000Y-100042857D01*
X129271428Y-100128571D01*
X129271428Y-100185714D01*
X129300000Y-100271428D01*
X129328571Y-100300000D01*
X129271428Y-100500000D02*
X129271428Y-100871428D01*
X129500000Y-100671428D01*
X129500000Y-100757142D01*
X129528571Y-100814285D01*
X129557142Y-100842857D01*
X129614285Y-100871428D01*
X129757142Y-100871428D01*
X129814285Y-100842857D01*
X129842857Y-100814285D01*
X129871428Y-100757142D01*
X129871428Y-100585714D01*
X129842857Y-100528571D01*
X129814285Y-100500000D01*
X118250000Y-103464285D02*
X118278571Y-103492857D01*
X118364285Y-103521428D01*
X118421428Y-103521428D01*
X118507142Y-103492857D01*
X118564285Y-103435714D01*
X118592857Y-103378571D01*
X118621428Y-103264285D01*
X118621428Y-103178571D01*
X118592857Y-103064285D01*
X118564285Y-103007142D01*
X118507142Y-102950000D01*
X118421428Y-102921428D01*
X118364285Y-102921428D01*
X118278571Y-102950000D01*
X118250000Y-102978571D01*
X118021428Y-102978571D02*
X117992857Y-102950000D01*
X117935714Y-102921428D01*
X117792857Y-102921428D01*
X117735714Y-102950000D01*
X117707142Y-102978571D01*
X117678571Y-103035714D01*
X117678571Y-103092857D01*
X117707142Y-103178571D01*
X118050000Y-103521428D01*
X117678571Y-103521428D01*
X118250000Y-104764285D02*
X118278571Y-104792857D01*
X118364285Y-104821428D01*
X118421428Y-104821428D01*
X118507142Y-104792857D01*
X118564285Y-104735714D01*
X118592857Y-104678571D01*
X118621428Y-104564285D01*
X118621428Y-104478571D01*
X118592857Y-104364285D01*
X118564285Y-104307142D01*
X118507142Y-104250000D01*
X118421428Y-104221428D01*
X118364285Y-104221428D01*
X118278571Y-104250000D01*
X118250000Y-104278571D01*
X117678571Y-104821428D02*
X118021428Y-104821428D01*
X117850000Y-104821428D02*
X117850000Y-104221428D01*
X117907142Y-104307142D01*
X117964285Y-104364285D01*
X118021428Y-104392857D01*
M02*
