G04 #@! TF.GenerationSoftware,KiCad,Pcbnew,(5.1.2)-1*
G04 #@! TF.CreationDate,2026-08-07T14:03:50+09:00*
G04 #@! TF.ProjectId,um,756d2e6b-6963-4616-945f-706362585858,v1.0*
G04 #@! TF.SameCoordinates,Original*
G04 #@! TF.FileFunction,Copper,L1,Top*
G04 #@! TF.FilePolarity,Positive*
%FSLAX46Y46*%
G04 Gerber Fmt 4.6, Leading zero omitted, Abs format (unit mm)*
G04 Created by KiCad (PCBNEW (5.1.2)-1) date 2026-08-07 14:03:50*
%MOMM*%
%LPD*%
G04 APERTURE LIST*
%ADD10O,1.000000X1.000000*%
%ADD11R,1.000000X1.000000*%
%ADD12C,1.800000*%
%ADD13C,0.100000*%
%ADD14C,1.000000*%
%ADD15R,0.650000X1.050000*%
%ADD16R,8.000000X2.000000*%
%ADD17R,7.000000X1.500000*%
%ADD18C,0.800000*%
%ADD19C,0.220000*%
%ADD20C,0.500000*%
%ADD21C,0.400000*%
%ADD22C,0.254000*%
G04 APERTURE END LIST*
D10*
X121030000Y-107100000D03*
D11*
X122300000Y-107100000D03*
D12*
X121336218Y-98136218D03*
D13*
G36*
X121265507Y-99479721D02*
G01*
X119992715Y-98206929D01*
X121406929Y-96792715D01*
X122679721Y-98065507D01*
X121265507Y-99479721D01*
X121265507Y-99479721D01*
G37*
D12*
X127063782Y-103863782D03*
D13*
G36*
X126993071Y-105207285D02*
G01*
X125720279Y-103934493D01*
X127134493Y-102520279D01*
X128407285Y-103793071D01*
X126993071Y-105207285D01*
X126993071Y-105207285D01*
G37*
D14*
X127735534Y-99479720D03*
D13*
G36*
X127629468Y-100292893D02*
G01*
X126922361Y-99585786D01*
X127841600Y-98666547D01*
X128548707Y-99373654D01*
X127629468Y-100292893D01*
X127629468Y-100292893D01*
G37*
D14*
X126727907Y-98472093D03*
D13*
G36*
X126621841Y-99285266D02*
G01*
X125914734Y-98578159D01*
X126833973Y-97658920D01*
X127541080Y-98366027D01*
X126621841Y-99285266D01*
X126621841Y-99285266D01*
G37*
D14*
X125720280Y-97464466D03*
D13*
G36*
X125614214Y-98277639D02*
G01*
X124907107Y-97570532D01*
X125826346Y-96651293D01*
X126533453Y-97358400D01*
X125614214Y-98277639D01*
X125614214Y-98277639D01*
G37*
D14*
X122679720Y-104535534D03*
D13*
G36*
X122573654Y-105348707D02*
G01*
X121866547Y-104641600D01*
X122785786Y-103722361D01*
X123492893Y-104429468D01*
X122573654Y-105348707D01*
X122573654Y-105348707D01*
G37*
D14*
X121672093Y-103527907D03*
D13*
G36*
X121566027Y-104341080D02*
G01*
X120858920Y-103633973D01*
X121778159Y-102714734D01*
X122485266Y-103421841D01*
X121566027Y-104341080D01*
X121566027Y-104341080D01*
G37*
D14*
X120664466Y-102520280D03*
D13*
G36*
X120558400Y-103333453D02*
G01*
X119851293Y-102626346D01*
X120770532Y-101707107D01*
X121477639Y-102414214D01*
X120558400Y-103333453D01*
X120558400Y-103333453D01*
G37*
D15*
X129550000Y-99200000D03*
X129550000Y-95050000D03*
X131700000Y-99200000D03*
X131700000Y-95050000D03*
X129550000Y-106900000D03*
X129550000Y-102750000D03*
X131700000Y-106900000D03*
X131700000Y-102750000D03*
D16*
X112550000Y-104450000D03*
X112550000Y-97500000D03*
D17*
X113050000Y-102000000D03*
X113050000Y-99950000D03*
D18*
X124800000Y-106700000D03*
X119215000Y-102115000D03*
X130900000Y-101200000D03*
X130700000Y-107000000D03*
X122850000Y-95850000D03*
X124275000Y-97475000D03*
X128800000Y-105400000D03*
X127850000Y-101250000D03*
X125583269Y-95000000D03*
X117800000Y-106200000D03*
X119350000Y-106300000D03*
X118200000Y-101000000D03*
X128822500Y-96050000D03*
X128803558Y-97114990D03*
X126050000Y-100750000D03*
X120683650Y-100500010D03*
X124453061Y-102046939D03*
X124000000Y-95350004D03*
X125400000Y-99750000D03*
D19*
X130900000Y-101200000D02*
X131465685Y-101200000D01*
X131700000Y-101434315D02*
X131700000Y-102750000D01*
X131465685Y-101200000D02*
X131700000Y-101434315D01*
X119215000Y-97915000D02*
X119215000Y-102115000D01*
D20*
X112550000Y-97500000D02*
X118800000Y-97500000D01*
D19*
X118800000Y-97500000D02*
X119215000Y-97915000D01*
D21*
X119215000Y-102915000D02*
X119215000Y-102115000D01*
X122200000Y-105900000D02*
X119215000Y-102915000D01*
D19*
X124800000Y-106700000D02*
X124000000Y-105900000D01*
D21*
X124000000Y-105900000D02*
X122200000Y-105900000D01*
D19*
X119852903Y-101477097D02*
X119215000Y-102115000D01*
X126527907Y-98472093D02*
X126400000Y-98600000D01*
X126727907Y-98472093D02*
X126527907Y-98472093D01*
X119852903Y-101397097D02*
X119852903Y-101477097D01*
X126400000Y-98600000D02*
X125400000Y-98600000D01*
X125400000Y-98600000D02*
X123600000Y-100400000D01*
X121197097Y-101397097D02*
X119852903Y-101397097D01*
X123600000Y-100400000D02*
X122194194Y-100400000D01*
X122194194Y-100400000D02*
X121197097Y-101397097D01*
X128858717Y-98275448D02*
X125983268Y-95399999D01*
X128858717Y-99841283D02*
X128858717Y-98275448D01*
X125983268Y-95399999D02*
X125583269Y-95000000D01*
X127700000Y-101000000D02*
X128858717Y-99841283D01*
X112700000Y-104600000D02*
X112550000Y-104450000D01*
D21*
X117400001Y-105800001D02*
X117800000Y-106200000D01*
X117400001Y-105000001D02*
X117400001Y-105800001D01*
X112700000Y-104600000D02*
X117000000Y-104600000D01*
X117000000Y-104600000D02*
X117400001Y-105000001D01*
D19*
X116770000Y-102000000D02*
X113050000Y-102000000D01*
X116979990Y-102209990D02*
X116770000Y-102000000D01*
X116979990Y-103179990D02*
X116979990Y-102209990D01*
X119300000Y-106500000D02*
X119300000Y-105500000D01*
X119300000Y-105500000D02*
X116979990Y-103179990D01*
X121330000Y-106430000D02*
X121330000Y-107100000D01*
X117400000Y-102500000D02*
X121330000Y-106430000D01*
X117400000Y-100700000D02*
X117400000Y-102500000D01*
X113050000Y-99950000D02*
X116650000Y-99950000D01*
X116650000Y-99950000D02*
X117400000Y-100700000D01*
X122600000Y-107100000D02*
X118200000Y-102700000D01*
X118200000Y-102700000D02*
X118200000Y-101565685D01*
X118200000Y-101565685D02*
X118200000Y-101000000D01*
X129550000Y-102750000D02*
X129550000Y-106900000D01*
X130600000Y-99600000D02*
X130600000Y-97634315D01*
X129550000Y-102750000D02*
X129550000Y-100650000D01*
X129550000Y-100650000D02*
X130600000Y-99600000D01*
X128822500Y-96200000D02*
X130400000Y-96200000D01*
X130600000Y-96400000D02*
X130600000Y-97634315D01*
X130400000Y-96200000D02*
X130600000Y-96400000D01*
X127950000Y-96261432D02*
X128403559Y-96714991D01*
X128300000Y-95050000D02*
X127950000Y-95400000D01*
X129203557Y-97514989D02*
X128803558Y-97114990D01*
X127950000Y-95400000D02*
X127950000Y-96261432D01*
X128403559Y-96714991D02*
X128803558Y-97114990D01*
X129550000Y-97861432D02*
X129203557Y-97514989D01*
X129550000Y-99200000D02*
X129550000Y-97861432D01*
X129550000Y-95050000D02*
X128300000Y-95050000D01*
X125955803Y-100844197D02*
X126050000Y-100750000D01*
X122655803Y-100844197D02*
X125955803Y-100844197D01*
X121510049Y-101989951D02*
X122655803Y-100844197D01*
X120664466Y-102520280D02*
X121194795Y-101989951D01*
X121194795Y-101989951D02*
X121510049Y-101989951D01*
X121083649Y-100100011D02*
X120683650Y-100500010D01*
X122283660Y-98900000D02*
X121083649Y-100100011D01*
X124200000Y-98900000D02*
X122283660Y-98900000D01*
X125720280Y-97464466D02*
X125635534Y-97464466D01*
X125635534Y-97464466D02*
X124200000Y-98900000D01*
X122679720Y-104535534D02*
X124453061Y-102762193D01*
X124453061Y-102612624D02*
X124453061Y-102046939D01*
X124453061Y-102762193D02*
X124453061Y-102612624D01*
X124399999Y-95750003D02*
X124000000Y-95350004D01*
X125788445Y-96049999D02*
X124699995Y-96049999D01*
X128265863Y-98527417D02*
X125788445Y-96049999D01*
X128265863Y-98949391D02*
X128265863Y-98527417D01*
X127735534Y-99479720D02*
X128265863Y-98949391D01*
X124699995Y-96049999D02*
X124399999Y-95750003D01*
X122050000Y-103150000D02*
X121672093Y-103527907D01*
X122050000Y-102350000D02*
X122050000Y-103150000D01*
X123100000Y-101300000D02*
X122050000Y-102350000D01*
X124849198Y-101300000D02*
X123100000Y-101300000D01*
X127000000Y-100300000D02*
X127000000Y-101050000D01*
X127000000Y-101050000D02*
X126495787Y-101554213D01*
X126495787Y-101554213D02*
X125103411Y-101554213D01*
X125103411Y-101554213D02*
X124849198Y-101300000D01*
X125965685Y-99750000D02*
X126450000Y-99750000D01*
X125400000Y-99750000D02*
X125965685Y-99750000D01*
X126450000Y-99750000D02*
X127000000Y-100300000D01*
D22*
G36*
X130740000Y-94764250D02*
G01*
X130898750Y-94923000D01*
X131573000Y-94923000D01*
X131573000Y-94903000D01*
X131820894Y-94903000D01*
X131827000Y-94922724D01*
X131827000Y-94923000D01*
X131827085Y-94923000D01*
X131829956Y-94932272D01*
X131840001Y-95027845D01*
X131840001Y-95177000D01*
X131827000Y-95177000D01*
X131827000Y-96051250D01*
X131840001Y-96064251D01*
X131840001Y-98185749D01*
X131827000Y-98198750D01*
X131827000Y-99073000D01*
X131840001Y-99073000D01*
X131840001Y-99327000D01*
X131827000Y-99327000D01*
X131827000Y-100201250D01*
X131840001Y-100214251D01*
X131840000Y-101735750D01*
X131827000Y-101748750D01*
X131827000Y-102623000D01*
X131840000Y-102623000D01*
X131840000Y-102877000D01*
X131827000Y-102877000D01*
X131827000Y-103751250D01*
X131840000Y-103764250D01*
X131840000Y-105885750D01*
X131827000Y-105898750D01*
X131827000Y-106773000D01*
X131840000Y-106773000D01*
X131840000Y-106967721D01*
X131834188Y-107027000D01*
X131827000Y-107027000D01*
X131827000Y-107047000D01*
X131573000Y-107047000D01*
X131573000Y-107027000D01*
X130898750Y-107027000D01*
X130740000Y-107185750D01*
X130738019Y-107340000D01*
X130513072Y-107340000D01*
X130513072Y-106375000D01*
X130736928Y-106375000D01*
X130740000Y-106614250D01*
X130898750Y-106773000D01*
X131573000Y-106773000D01*
X131573000Y-105898750D01*
X131414250Y-105740000D01*
X131375000Y-105736928D01*
X131250518Y-105749188D01*
X131130820Y-105785498D01*
X131020506Y-105844463D01*
X130923815Y-105923815D01*
X130844463Y-106020506D01*
X130785498Y-106130820D01*
X130749188Y-106250518D01*
X130736928Y-106375000D01*
X130513072Y-106375000D01*
X130500812Y-106250518D01*
X130464502Y-106130820D01*
X130405537Y-106020506D01*
X130326185Y-105923815D01*
X130295000Y-105898222D01*
X130295000Y-103751778D01*
X130326185Y-103726185D01*
X130405537Y-103629494D01*
X130464502Y-103519180D01*
X130500812Y-103399482D01*
X130513072Y-103275000D01*
X130736928Y-103275000D01*
X130749188Y-103399482D01*
X130785498Y-103519180D01*
X130844463Y-103629494D01*
X130923815Y-103726185D01*
X131020506Y-103805537D01*
X131130820Y-103864502D01*
X131250518Y-103900812D01*
X131375000Y-103913072D01*
X131414250Y-103910000D01*
X131573000Y-103751250D01*
X131573000Y-102877000D01*
X130898750Y-102877000D01*
X130740000Y-103035750D01*
X130736928Y-103275000D01*
X130513072Y-103275000D01*
X130513072Y-102225000D01*
X130736928Y-102225000D01*
X130740000Y-102464250D01*
X130898750Y-102623000D01*
X131573000Y-102623000D01*
X131573000Y-101748750D01*
X131414250Y-101590000D01*
X131375000Y-101586928D01*
X131250518Y-101599188D01*
X131130820Y-101635498D01*
X131020506Y-101694463D01*
X130923815Y-101773815D01*
X130844463Y-101870506D01*
X130785498Y-101980820D01*
X130749188Y-102100518D01*
X130736928Y-102225000D01*
X130513072Y-102225000D01*
X130500812Y-102100518D01*
X130464502Y-101980820D01*
X130405537Y-101870506D01*
X130326185Y-101773815D01*
X130295000Y-101748222D01*
X130295000Y-100958589D01*
X131008173Y-100245416D01*
X131020506Y-100255537D01*
X131130820Y-100314502D01*
X131250518Y-100350812D01*
X131375000Y-100363072D01*
X131414250Y-100360000D01*
X131573000Y-100201250D01*
X131573000Y-99327000D01*
X131553000Y-99327000D01*
X131553000Y-99073000D01*
X131573000Y-99073000D01*
X131573000Y-98198750D01*
X131414250Y-98040000D01*
X131375000Y-98036928D01*
X131345000Y-98039883D01*
X131345000Y-96436590D01*
X131348604Y-96400000D01*
X131343290Y-96346045D01*
X131334220Y-96253955D01*
X131320180Y-96207673D01*
X131375000Y-96213072D01*
X131414250Y-96210000D01*
X131573000Y-96051250D01*
X131573000Y-95177000D01*
X130898750Y-95177000D01*
X130740000Y-95335750D01*
X130737434Y-95535617D01*
X130686478Y-95508380D01*
X130546045Y-95465780D01*
X130513072Y-95462532D01*
X130513072Y-94660000D01*
X130738661Y-94660000D01*
X130740000Y-94764250D01*
X130740000Y-94764250D01*
G37*
X130740000Y-94764250D02*
X130898750Y-94923000D01*
X131573000Y-94923000D01*
X131573000Y-94903000D01*
X131820894Y-94903000D01*
X131827000Y-94922724D01*
X131827000Y-94923000D01*
X131827085Y-94923000D01*
X131829956Y-94932272D01*
X131840001Y-95027845D01*
X131840001Y-95177000D01*
X131827000Y-95177000D01*
X131827000Y-96051250D01*
X131840001Y-96064251D01*
X131840001Y-98185749D01*
X131827000Y-98198750D01*
X131827000Y-99073000D01*
X131840001Y-99073000D01*
X131840001Y-99327000D01*
X131827000Y-99327000D01*
X131827000Y-100201250D01*
X131840001Y-100214251D01*
X131840000Y-101735750D01*
X131827000Y-101748750D01*
X131827000Y-102623000D01*
X131840000Y-102623000D01*
X131840000Y-102877000D01*
X131827000Y-102877000D01*
X131827000Y-103751250D01*
X131840000Y-103764250D01*
X131840000Y-105885750D01*
X131827000Y-105898750D01*
X131827000Y-106773000D01*
X131840000Y-106773000D01*
X131840000Y-106967721D01*
X131834188Y-107027000D01*
X131827000Y-107027000D01*
X131827000Y-107047000D01*
X131573000Y-107047000D01*
X131573000Y-107027000D01*
X130898750Y-107027000D01*
X130740000Y-107185750D01*
X130738019Y-107340000D01*
X130513072Y-107340000D01*
X130513072Y-106375000D01*
X130736928Y-106375000D01*
X130740000Y-106614250D01*
X130898750Y-106773000D01*
X131573000Y-106773000D01*
X131573000Y-105898750D01*
X131414250Y-105740000D01*
X131375000Y-105736928D01*
X131250518Y-105749188D01*
X131130820Y-105785498D01*
X131020506Y-105844463D01*
X130923815Y-105923815D01*
X130844463Y-106020506D01*
X130785498Y-106130820D01*
X130749188Y-106250518D01*
X130736928Y-106375000D01*
X130513072Y-106375000D01*
X130500812Y-106250518D01*
X130464502Y-106130820D01*
X130405537Y-106020506D01*
X130326185Y-105923815D01*
X130295000Y-105898222D01*
X130295000Y-103751778D01*
X130326185Y-103726185D01*
X130405537Y-103629494D01*
X130464502Y-103519180D01*
X130500812Y-103399482D01*
X130513072Y-103275000D01*
X130736928Y-103275000D01*
X130749188Y-103399482D01*
X130785498Y-103519180D01*
X130844463Y-103629494D01*
X130923815Y-103726185D01*
X131020506Y-103805537D01*
X131130820Y-103864502D01*
X131250518Y-103900812D01*
X131375000Y-103913072D01*
X131414250Y-103910000D01*
X131573000Y-103751250D01*
X131573000Y-102877000D01*
X130898750Y-102877000D01*
X130740000Y-103035750D01*
X130736928Y-103275000D01*
X130513072Y-103275000D01*
X130513072Y-102225000D01*
X130736928Y-102225000D01*
X130740000Y-102464250D01*
X130898750Y-102623000D01*
X131573000Y-102623000D01*
X131573000Y-101748750D01*
X131414250Y-101590000D01*
X131375000Y-101586928D01*
X131250518Y-101599188D01*
X131130820Y-101635498D01*
X131020506Y-101694463D01*
X130923815Y-101773815D01*
X130844463Y-101870506D01*
X130785498Y-101980820D01*
X130749188Y-102100518D01*
X130736928Y-102225000D01*
X130513072Y-102225000D01*
X130500812Y-102100518D01*
X130464502Y-101980820D01*
X130405537Y-101870506D01*
X130326185Y-101773815D01*
X130295000Y-101748222D01*
X130295000Y-100958589D01*
X131008173Y-100245416D01*
X131020506Y-100255537D01*
X131130820Y-100314502D01*
X131250518Y-100350812D01*
X131375000Y-100363072D01*
X131414250Y-100360000D01*
X131573000Y-100201250D01*
X131573000Y-99327000D01*
X131553000Y-99327000D01*
X131553000Y-99073000D01*
X131573000Y-99073000D01*
X131573000Y-98198750D01*
X131414250Y-98040000D01*
X131375000Y-98036928D01*
X131345000Y-98039883D01*
X131345000Y-96436590D01*
X131348604Y-96400000D01*
X131343290Y-96346045D01*
X131334220Y-96253955D01*
X131320180Y-96207673D01*
X131375000Y-96213072D01*
X131414250Y-96210000D01*
X131573000Y-96051250D01*
X131573000Y-95177000D01*
X130898750Y-95177000D01*
X130740000Y-95335750D01*
X130737434Y-95535617D01*
X130686478Y-95508380D01*
X130546045Y-95465780D01*
X130513072Y-95462532D01*
X130513072Y-94660000D01*
X130738661Y-94660000D01*
X130740000Y-94764250D01*
G36*
X125052906Y-103464348D02*
G01*
X125225861Y-103535988D01*
X125189742Y-103579999D01*
X125130777Y-103690313D01*
X125094467Y-103810011D01*
X125082207Y-103934493D01*
X125094467Y-104058975D01*
X125130777Y-104178673D01*
X125189742Y-104288987D01*
X125269094Y-104385678D01*
X126541886Y-105658470D01*
X126638577Y-105737822D01*
X126748891Y-105796787D01*
X126868589Y-105833097D01*
X126993071Y-105845357D01*
X127117553Y-105833097D01*
X127237251Y-105796787D01*
X127347565Y-105737822D01*
X127444256Y-105658470D01*
X128805000Y-104297726D01*
X128805001Y-105898222D01*
X128773815Y-105923815D01*
X128694463Y-106020506D01*
X128635498Y-106130820D01*
X128599188Y-106250518D01*
X128586928Y-106375000D01*
X128586928Y-107340000D01*
X123438072Y-107340000D01*
X123438072Y-106600000D01*
X123425812Y-106475518D01*
X123389502Y-106355820D01*
X123330537Y-106245506D01*
X123251185Y-106148815D01*
X123154494Y-106069463D01*
X123044180Y-106010498D01*
X122924482Y-105974188D01*
X122800000Y-105961928D01*
X122739643Y-105961928D01*
X122817834Y-105938209D01*
X122928148Y-105879244D01*
X123024839Y-105799892D01*
X123944078Y-104880653D01*
X124023430Y-104783962D01*
X124082395Y-104673648D01*
X124118705Y-104553950D01*
X124130965Y-104429468D01*
X124118705Y-104304986D01*
X124082665Y-104186178D01*
X124903995Y-103364849D01*
X125052906Y-103464348D01*
X125052906Y-103464348D01*
G37*
X125052906Y-103464348D02*
X125225861Y-103535988D01*
X125189742Y-103579999D01*
X125130777Y-103690313D01*
X125094467Y-103810011D01*
X125082207Y-103934493D01*
X125094467Y-104058975D01*
X125130777Y-104178673D01*
X125189742Y-104288987D01*
X125269094Y-104385678D01*
X126541886Y-105658470D01*
X126638577Y-105737822D01*
X126748891Y-105796787D01*
X126868589Y-105833097D01*
X126993071Y-105845357D01*
X127117553Y-105833097D01*
X127237251Y-105796787D01*
X127347565Y-105737822D01*
X127444256Y-105658470D01*
X128805000Y-104297726D01*
X128805001Y-105898222D01*
X128773815Y-105923815D01*
X128694463Y-106020506D01*
X128635498Y-106130820D01*
X128599188Y-106250518D01*
X128586928Y-106375000D01*
X128586928Y-107340000D01*
X123438072Y-107340000D01*
X123438072Y-106600000D01*
X123425812Y-106475518D01*
X123389502Y-106355820D01*
X123330537Y-106245506D01*
X123251185Y-106148815D01*
X123154494Y-106069463D01*
X123044180Y-106010498D01*
X122924482Y-105974188D01*
X122800000Y-105961928D01*
X122739643Y-105961928D01*
X122817834Y-105938209D01*
X122928148Y-105879244D01*
X123024839Y-105799892D01*
X123944078Y-104880653D01*
X124023430Y-104783962D01*
X124082395Y-104673648D01*
X124118705Y-104553950D01*
X124130965Y-104429468D01*
X124118705Y-104304986D01*
X124082665Y-104186178D01*
X124903995Y-103364849D01*
X125052906Y-103464348D01*
G36*
X123196063Y-94690230D02*
G01*
X123082795Y-94859748D01*
X123004774Y-95048106D01*
X122965000Y-95248065D01*
X122965000Y-95451943D01*
X123004774Y-95651902D01*
X123082795Y-95840260D01*
X123196063Y-96009778D01*
X123340226Y-96153941D01*
X123509744Y-96267209D01*
X123698102Y-96345230D01*
X123898061Y-96385004D01*
X123981411Y-96385004D01*
X124147322Y-96550914D01*
X124170652Y-96579342D01*
X124284093Y-96672440D01*
X124413517Y-96741619D01*
X124553950Y-96784219D01*
X124663403Y-96794999D01*
X124663412Y-96794999D01*
X124699994Y-96798602D01*
X124736576Y-96794999D01*
X124780270Y-96794999D01*
X124455922Y-97119347D01*
X124376570Y-97216038D01*
X124317605Y-97326352D01*
X124281295Y-97446050D01*
X124269035Y-97570532D01*
X124281295Y-97695014D01*
X124297611Y-97748800D01*
X123891411Y-98155000D01*
X123308979Y-98155000D01*
X123317793Y-98065507D01*
X123305533Y-97941025D01*
X123269223Y-97821327D01*
X123210258Y-97711013D01*
X123130906Y-97614322D01*
X121858114Y-96341530D01*
X121761423Y-96262178D01*
X121651109Y-96203213D01*
X121531411Y-96166903D01*
X121406929Y-96154643D01*
X121282447Y-96166903D01*
X121162749Y-96203213D01*
X121052435Y-96262178D01*
X120955744Y-96341530D01*
X119541530Y-97755744D01*
X119462178Y-97852435D01*
X119403213Y-97962749D01*
X119366903Y-98082447D01*
X119354643Y-98206929D01*
X119366903Y-98331411D01*
X119403213Y-98451109D01*
X119462178Y-98561423D01*
X119541530Y-98658114D01*
X120387130Y-99503714D01*
X120381752Y-99504784D01*
X120193394Y-99582805D01*
X120023876Y-99696073D01*
X119879713Y-99840236D01*
X119766445Y-100009754D01*
X119688424Y-100198112D01*
X119648650Y-100398071D01*
X119648650Y-100601949D01*
X119688424Y-100801908D01*
X119766445Y-100990266D01*
X119879713Y-101159784D01*
X120023876Y-101303947D01*
X120172209Y-101403060D01*
X119400108Y-102175161D01*
X119320756Y-102271852D01*
X119261791Y-102382166D01*
X119225481Y-102501864D01*
X119213221Y-102626346D01*
X119216857Y-102663268D01*
X118945000Y-102391411D01*
X118945000Y-101718711D01*
X119003937Y-101659774D01*
X119117205Y-101490256D01*
X119195226Y-101301898D01*
X119235000Y-101101939D01*
X119235000Y-100898061D01*
X119195226Y-100698102D01*
X119117205Y-100509744D01*
X119003937Y-100340226D01*
X118859774Y-100196063D01*
X118690256Y-100082795D01*
X118501898Y-100004774D01*
X118301939Y-99965000D01*
X118098061Y-99965000D01*
X117898102Y-100004774D01*
X117799292Y-100045703D01*
X117202669Y-99449080D01*
X117188072Y-99431293D01*
X117188072Y-99200000D01*
X117175812Y-99075518D01*
X117139502Y-98955820D01*
X117082939Y-98850000D01*
X117139502Y-98744180D01*
X117175812Y-98624482D01*
X117188072Y-98500000D01*
X117185000Y-97785750D01*
X117027000Y-97627750D01*
X117027000Y-97372250D01*
X117185000Y-97214250D01*
X117188072Y-96500000D01*
X117175812Y-96375518D01*
X117139502Y-96255820D01*
X117080537Y-96145506D01*
X117027000Y-96080271D01*
X117027000Y-95660000D01*
X117032419Y-95660000D01*
X117060329Y-95657251D01*
X117063308Y-95657272D01*
X117072479Y-95656373D01*
X117120648Y-95651310D01*
X117129383Y-95650450D01*
X117129674Y-95650362D01*
X117169527Y-95646173D01*
X117228152Y-95634139D01*
X117286884Y-95622936D01*
X117295706Y-95620272D01*
X117388925Y-95591416D01*
X117444075Y-95568233D01*
X117499537Y-95545825D01*
X117507666Y-95541502D01*
X117507670Y-95541500D01*
X117507673Y-95541498D01*
X117593511Y-95495086D01*
X117643098Y-95461638D01*
X117693156Y-95428881D01*
X117700297Y-95423057D01*
X117775486Y-95360855D01*
X117817639Y-95318406D01*
X117860371Y-95276561D01*
X117866245Y-95269460D01*
X117927921Y-95193840D01*
X117961052Y-95143975D01*
X117994825Y-95094650D01*
X117999208Y-95086544D01*
X118045020Y-95000383D01*
X118067809Y-94945091D01*
X118091378Y-94890102D01*
X118094103Y-94881299D01*
X118122308Y-94787881D01*
X118133933Y-94729174D01*
X118146365Y-94670684D01*
X118147327Y-94661530D01*
X118147328Y-94661524D01*
X118147328Y-94661519D01*
X118147477Y-94660000D01*
X123226293Y-94660000D01*
X123196063Y-94690230D01*
X123196063Y-94690230D01*
G37*
X123196063Y-94690230D02*
X123082795Y-94859748D01*
X123004774Y-95048106D01*
X122965000Y-95248065D01*
X122965000Y-95451943D01*
X123004774Y-95651902D01*
X123082795Y-95840260D01*
X123196063Y-96009778D01*
X123340226Y-96153941D01*
X123509744Y-96267209D01*
X123698102Y-96345230D01*
X123898061Y-96385004D01*
X123981411Y-96385004D01*
X124147322Y-96550914D01*
X124170652Y-96579342D01*
X124284093Y-96672440D01*
X124413517Y-96741619D01*
X124553950Y-96784219D01*
X124663403Y-96794999D01*
X124663412Y-96794999D01*
X124699994Y-96798602D01*
X124736576Y-96794999D01*
X124780270Y-96794999D01*
X124455922Y-97119347D01*
X124376570Y-97216038D01*
X124317605Y-97326352D01*
X124281295Y-97446050D01*
X124269035Y-97570532D01*
X124281295Y-97695014D01*
X124297611Y-97748800D01*
X123891411Y-98155000D01*
X123308979Y-98155000D01*
X123317793Y-98065507D01*
X123305533Y-97941025D01*
X123269223Y-97821327D01*
X123210258Y-97711013D01*
X123130906Y-97614322D01*
X121858114Y-96341530D01*
X121761423Y-96262178D01*
X121651109Y-96203213D01*
X121531411Y-96166903D01*
X121406929Y-96154643D01*
X121282447Y-96166903D01*
X121162749Y-96203213D01*
X121052435Y-96262178D01*
X120955744Y-96341530D01*
X119541530Y-97755744D01*
X119462178Y-97852435D01*
X119403213Y-97962749D01*
X119366903Y-98082447D01*
X119354643Y-98206929D01*
X119366903Y-98331411D01*
X119403213Y-98451109D01*
X119462178Y-98561423D01*
X119541530Y-98658114D01*
X120387130Y-99503714D01*
X120381752Y-99504784D01*
X120193394Y-99582805D01*
X120023876Y-99696073D01*
X119879713Y-99840236D01*
X119766445Y-100009754D01*
X119688424Y-100198112D01*
X119648650Y-100398071D01*
X119648650Y-100601949D01*
X119688424Y-100801908D01*
X119766445Y-100990266D01*
X119879713Y-101159784D01*
X120023876Y-101303947D01*
X120172209Y-101403060D01*
X119400108Y-102175161D01*
X119320756Y-102271852D01*
X119261791Y-102382166D01*
X119225481Y-102501864D01*
X119213221Y-102626346D01*
X119216857Y-102663268D01*
X118945000Y-102391411D01*
X118945000Y-101718711D01*
X119003937Y-101659774D01*
X119117205Y-101490256D01*
X119195226Y-101301898D01*
X119235000Y-101101939D01*
X119235000Y-100898061D01*
X119195226Y-100698102D01*
X119117205Y-100509744D01*
X119003937Y-100340226D01*
X118859774Y-100196063D01*
X118690256Y-100082795D01*
X118501898Y-100004774D01*
X118301939Y-99965000D01*
X118098061Y-99965000D01*
X117898102Y-100004774D01*
X117799292Y-100045703D01*
X117202669Y-99449080D01*
X117188072Y-99431293D01*
X117188072Y-99200000D01*
X117175812Y-99075518D01*
X117139502Y-98955820D01*
X117082939Y-98850000D01*
X117139502Y-98744180D01*
X117175812Y-98624482D01*
X117188072Y-98500000D01*
X117185000Y-97785750D01*
X117027000Y-97627750D01*
X117027000Y-97372250D01*
X117185000Y-97214250D01*
X117188072Y-96500000D01*
X117175812Y-96375518D01*
X117139502Y-96255820D01*
X117080537Y-96145506D01*
X117027000Y-96080271D01*
X117027000Y-95660000D01*
X117032419Y-95660000D01*
X117060329Y-95657251D01*
X117063308Y-95657272D01*
X117072479Y-95656373D01*
X117120648Y-95651310D01*
X117129383Y-95650450D01*
X117129674Y-95650362D01*
X117169527Y-95646173D01*
X117228152Y-95634139D01*
X117286884Y-95622936D01*
X117295706Y-95620272D01*
X117388925Y-95591416D01*
X117444075Y-95568233D01*
X117499537Y-95545825D01*
X117507666Y-95541502D01*
X117507670Y-95541500D01*
X117507673Y-95541498D01*
X117593511Y-95495086D01*
X117643098Y-95461638D01*
X117693156Y-95428881D01*
X117700297Y-95423057D01*
X117775486Y-95360855D01*
X117817639Y-95318406D01*
X117860371Y-95276561D01*
X117866245Y-95269460D01*
X117927921Y-95193840D01*
X117961052Y-95143975D01*
X117994825Y-95094650D01*
X117999208Y-95086544D01*
X118045020Y-95000383D01*
X118067809Y-94945091D01*
X118091378Y-94890102D01*
X118094103Y-94881299D01*
X118122308Y-94787881D01*
X118133933Y-94729174D01*
X118146365Y-94670684D01*
X118147327Y-94661530D01*
X118147328Y-94661524D01*
X118147328Y-94661519D01*
X118147477Y-94660000D01*
X123226293Y-94660000D01*
X123196063Y-94690230D01*
G36*
X122052560Y-100316271D02*
G01*
X122091350Y-100355061D01*
X121687411Y-100759000D01*
X121718650Y-100601949D01*
X121718650Y-100518599D01*
X121999856Y-100237393D01*
X122052560Y-100316271D01*
X122052560Y-100316271D01*
G37*
X122052560Y-100316271D02*
X122091350Y-100355061D01*
X121687411Y-100759000D01*
X121718650Y-100601949D01*
X121718650Y-100518599D01*
X121999856Y-100237393D01*
X122052560Y-100316271D01*
G36*
X126921655Y-98457951D02*
G01*
X126907512Y-98472093D01*
X126921655Y-98486236D01*
X126742050Y-98665841D01*
X126727907Y-98651698D01*
X126713765Y-98665841D01*
X126534160Y-98486236D01*
X126548302Y-98472093D01*
X126534160Y-98457951D01*
X126713765Y-98278346D01*
X126727907Y-98292488D01*
X126742050Y-98278346D01*
X126921655Y-98457951D01*
X126921655Y-98457951D01*
G37*
X126921655Y-98457951D02*
X126907512Y-98472093D01*
X126921655Y-98486236D01*
X126742050Y-98665841D01*
X126727907Y-98651698D01*
X126713765Y-98665841D01*
X126534160Y-98486236D01*
X126548302Y-98472093D01*
X126534160Y-98457951D01*
X126713765Y-98278346D01*
X126727907Y-98292488D01*
X126742050Y-98278346D01*
X126921655Y-98457951D01*
M02*
