G04 #@! TF.GenerationSoftware,KiCad,Pcbnew,(5.1.2)-1*
G04 #@! TF.CreationDate,2026-08-07T14:03:50+09:00*
G04 #@! TF.ProjectId,um,756d2e6b-6963-4616-945f-706362585858,v1.0*
G04 #@! TF.SameCoordinates,Original*
G04 #@! TF.FileFunction,Paste,Top*
G04 #@! TF.FilePolarity,Positive*
%FSLAX46Y46*%
G04 Gerber Fmt 4.6, Leading zero omitted, Abs format (unit mm)*
G04 Created by KiCad (PCBNEW (5.1.2)-1) date 2026-08-07 14:03:50*
%MOMM*%
%LPD*%
G04 APERTURE LIST*
%ADD10C,1.800000*%
%ADD11C,0.100000*%
%ADD12C,1.000000*%
%ADD13R,0.650000X1.050000*%
%ADD14R,8.000000X2.000000*%
%ADD15R,7.000000X1.500000*%
G04 APERTURE END LIST*
D10*
X121336218Y-98136218D03*
D11*
G36*
X121265507Y-99479721D02*
G01*
X119992715Y-98206929D01*
X121406929Y-96792715D01*
X122679721Y-98065507D01*
X121265507Y-99479721D01*
X121265507Y-99479721D01*
G37*
D10*
X127063782Y-103863782D03*
D11*
G36*
X126993071Y-105207285D02*
G01*
X125720279Y-103934493D01*
X127134493Y-102520279D01*
X128407285Y-103793071D01*
X126993071Y-105207285D01*
X126993071Y-105207285D01*
G37*
D12*
X127735534Y-99479720D03*
D11*
G36*
X127629468Y-100292893D02*
G01*
X126922361Y-99585786D01*
X127841600Y-98666547D01*
X128548707Y-99373654D01*
X127629468Y-100292893D01*
X127629468Y-100292893D01*
G37*
D12*
X126727907Y-98472093D03*
D11*
G36*
X126621841Y-99285266D02*
G01*
X125914734Y-98578159D01*
X126833973Y-97658920D01*
X127541080Y-98366027D01*
X126621841Y-99285266D01*
X126621841Y-99285266D01*
G37*
D12*
X125720280Y-97464466D03*
D11*
G36*
X125614214Y-98277639D02*
G01*
X124907107Y-97570532D01*
X125826346Y-96651293D01*
X126533453Y-97358400D01*
X125614214Y-98277639D01*
X125614214Y-98277639D01*
G37*
D12*
X122679720Y-104535534D03*
D11*
G36*
X122573654Y-105348707D02*
G01*
X121866547Y-104641600D01*
X122785786Y-103722361D01*
X123492893Y-104429468D01*
X122573654Y-105348707D01*
X122573654Y-105348707D01*
G37*
D12*
X121672093Y-103527907D03*
D11*
G36*
X121566027Y-104341080D02*
G01*
X120858920Y-103633973D01*
X121778159Y-102714734D01*
X122485266Y-103421841D01*
X121566027Y-104341080D01*
X121566027Y-104341080D01*
G37*
D12*
X120664466Y-102520280D03*
D11*
G36*
X120558400Y-103333453D02*
G01*
X119851293Y-102626346D01*
X120770532Y-101707107D01*
X121477639Y-102414214D01*
X120558400Y-103333453D01*
X120558400Y-103333453D01*
G37*
D13*
X129550000Y-99200000D03*
X129550000Y-95050000D03*
X131700000Y-99200000D03*
X131700000Y-95050000D03*
X129550000Y-106900000D03*
X129550000Y-102750000D03*
X131700000Y-106900000D03*
X131700000Y-102750000D03*
D14*
X112550000Y-104450000D03*
X112550000Y-97500000D03*
D15*
X113050000Y-102000000D03*
X113050000Y-99950000D03*
M02*
