G04 #@! TF.GenerationSoftware,KiCad,Pcbnew,(5.1.2)-1*
G04 #@! TF.CreationDate,2026-08-07T14:03:50+09:00*
G04 #@! TF.ProjectId,um,756d2e6b-6963-4616-945f-706362585858,v1.0*
G04 #@! TF.SameCoordinates,Original*
G04 #@! TF.FileFunction,Legend,Top*
G04 #@! TF.FilePolarity,Positive*
%FSLAX46Y46*%
G04 Gerber Fmt 4.6, Leading zero omitted, Abs format (unit mm)*
G04 Created by KiCad (PCBNEW (5.1.2)-1) date 2026-08-07 14:03:50*
%MOMM*%
%LPD*%
G04 APERTURE LIST*
%ADD10C,0.120000*%
%ADD11C,0.300000*%
G04 APERTURE END LIST*
D10*
X120614285Y-105942857D02*
X120728571Y-105980952D01*
X120766666Y-106019047D01*
X120804761Y-106095238D01*
X120804761Y-106209523D01*
X120766666Y-106285714D01*
X120728571Y-106323809D01*
X120652380Y-106361904D01*
X120347619Y-106361904D01*
X120347619Y-105561904D01*
X120614285Y-105561904D01*
X120690476Y-105600000D01*
X120728571Y-105638095D01*
X120766666Y-105714285D01*
X120766666Y-105790476D01*
X120728571Y-105866666D01*
X120690476Y-105904761D01*
X120614285Y-105942857D01*
X120347619Y-105942857D01*
X121300000Y-105561904D02*
X121452380Y-105561904D01*
X121528571Y-105600000D01*
X121604761Y-105676190D01*
X121642857Y-105828571D01*
X121642857Y-106095238D01*
X121604761Y-106247619D01*
X121528571Y-106323809D01*
X121452380Y-106361904D01*
X121300000Y-106361904D01*
X121223809Y-106323809D01*
X121147619Y-106247619D01*
X121109523Y-106095238D01*
X121109523Y-105828571D01*
X121147619Y-105676190D01*
X121223809Y-105600000D01*
X121300000Y-105561904D01*
X122138095Y-105561904D02*
X122290476Y-105561904D01*
X122366666Y-105600000D01*
X122442857Y-105676190D01*
X122480952Y-105828571D01*
X122480952Y-106095238D01*
X122442857Y-106247619D01*
X122366666Y-106323809D01*
X122290476Y-106361904D01*
X122138095Y-106361904D01*
X122061904Y-106323809D01*
X121985714Y-106247619D01*
X121947619Y-106095238D01*
X121947619Y-105828571D01*
X121985714Y-105676190D01*
X122061904Y-105600000D01*
X122138095Y-105561904D01*
X122709523Y-105561904D02*
X123166666Y-105561904D01*
X122938095Y-106361904D02*
X122938095Y-105561904D01*
D11*
X119700000Y-103214285D02*
X119795238Y-103309523D01*
X119700000Y-103404761D01*
X119604761Y-103309523D01*
X119700000Y-103214285D01*
X119700000Y-103404761D01*
D10*
X119433333Y-106711904D02*
X119433333Y-107283333D01*
X119395238Y-107397619D01*
X119319047Y-107473809D01*
X119204761Y-107511904D01*
X119128571Y-107511904D01*
X119776190Y-106788095D02*
X119814285Y-106750000D01*
X119890476Y-106711904D01*
X120080952Y-106711904D01*
X120157142Y-106750000D01*
X120195238Y-106788095D01*
X120233333Y-106864285D01*
X120233333Y-106940476D01*
X120195238Y-107054761D01*
X119738095Y-107511904D01*
X120233333Y-107511904D01*
X119523809Y-101666666D02*
X119561904Y-101552380D01*
X119561904Y-101361904D01*
X119523809Y-101285714D01*
X119485714Y-101247619D01*
X119409523Y-101209523D01*
X119333333Y-101209523D01*
X119257142Y-101247619D01*
X119219047Y-101285714D01*
X119180952Y-101361904D01*
X119142857Y-101514285D01*
X119104761Y-101590476D01*
X119066666Y-101628571D01*
X118990476Y-101666666D01*
X118914285Y-101666666D01*
X118838095Y-101628571D01*
X118800000Y-101590476D01*
X118761904Y-101514285D01*
X118761904Y-101323809D01*
X118800000Y-101209523D01*
X118761904Y-100942857D02*
X119561904Y-100752380D01*
X118990476Y-100600000D01*
X119561904Y-100447619D01*
X118761904Y-100257142D01*
X119561904Y-99533333D02*
X119561904Y-99990476D01*
X119561904Y-99761904D02*
X118761904Y-99761904D01*
X118876190Y-99838095D01*
X118952380Y-99914285D01*
X118990476Y-99990476D01*
X128323809Y-97066666D02*
X128361904Y-96952380D01*
X128361904Y-96761904D01*
X128323809Y-96685714D01*
X128285714Y-96647619D01*
X128209523Y-96609523D01*
X128133333Y-96609523D01*
X128057142Y-96647619D01*
X128019047Y-96685714D01*
X127980952Y-96761904D01*
X127942857Y-96914285D01*
X127904761Y-96990476D01*
X127866666Y-97028571D01*
X127790476Y-97066666D01*
X127714285Y-97066666D01*
X127638095Y-97028571D01*
X127600000Y-96990476D01*
X127561904Y-96914285D01*
X127561904Y-96723809D01*
X127600000Y-96609523D01*
X127561904Y-96342857D02*
X128361904Y-96152380D01*
X127790476Y-96000000D01*
X128361904Y-95847619D01*
X127561904Y-95657142D01*
X127561904Y-95428571D02*
X127561904Y-94933333D01*
X127866666Y-95200000D01*
X127866666Y-95085714D01*
X127904761Y-95009523D01*
X127942857Y-94971428D01*
X128019047Y-94933333D01*
X128209523Y-94933333D01*
X128285714Y-94971428D01*
X128323809Y-95009523D01*
X128361904Y-95085714D01*
X128361904Y-95314285D01*
X128323809Y-95390476D01*
X128285714Y-95428571D01*
X128223809Y-107366666D02*
X128261904Y-107252380D01*
X128261904Y-107061904D01*
X128223809Y-106985714D01*
X128185714Y-106947619D01*
X128109523Y-106909523D01*
X128033333Y-106909523D01*
X127957142Y-106947619D01*
X127919047Y-106985714D01*
X127880952Y-107061904D01*
X127842857Y-107214285D01*
X127804761Y-107290476D01*
X127766666Y-107328571D01*
X127690476Y-107366666D01*
X127614285Y-107366666D01*
X127538095Y-107328571D01*
X127500000Y-107290476D01*
X127461904Y-107214285D01*
X127461904Y-107023809D01*
X127500000Y-106909523D01*
X127461904Y-106642857D02*
X128261904Y-106452380D01*
X127690476Y-106300000D01*
X128261904Y-106147619D01*
X127461904Y-105957142D01*
X127538095Y-105690476D02*
X127500000Y-105652380D01*
X127461904Y-105576190D01*
X127461904Y-105385714D01*
X127500000Y-105309523D01*
X127538095Y-105271428D01*
X127614285Y-105233333D01*
X127690476Y-105233333D01*
X127804761Y-105271428D01*
X128261904Y-105728571D01*
X128261904Y-105233333D01*
M02*
