M48
; DRILL file {KiCad (5.1.2)-1} date 2026/08/07 14:03:52
; FORMAT={-:-/ absolute / metric / decimal}
; #@! TF.CreationDate,2026-08-07T14:03:52+09:00
; #@! TF.GenerationSoftware,Kicad,Pcbnew,(5.1.2)-1
FMAT,2
METRIC
T1C0.400
T2C0.650
T3C0.800
T4C1.100
%
G90
G05
T1
X117.8Y-106.2
X118.2Y-101.0
X119.215Y-102.115
X119.35Y-106.3
X120.684Y-100.5
X122.85Y-95.85
X124.0Y-95.35
X124.275Y-97.475
X124.453Y-102.047
X124.8Y-106.7
X125.4Y-99.75
X125.583Y-95.0
X126.05Y-100.75
X127.85Y-101.25
X128.8Y-105.4
X128.804Y-97.115
X128.822Y-96.05
X130.7Y-107.0
X130.9Y-101.2
T2
X121.03Y-107.1
X122.3Y-107.1
T3
X122.856Y-99.656
T4
X125.614Y-102.414
T0
M30
